<?xml version="1.0" encoding="UTF-8" standalone="no"?>
<!-- Generator: Adobe Illustrator 18.1.0, SVG Export Plug-In . SVG Version: 6.00 Build 0)  -->

<svg
   xmlns:dc="http://purl.org/dc/elements/1.1/"
   xmlns:cc="http://creativecommons.org/ns#"
   xmlns:rdf="http://www.w3.org/1999/02/22-rdf-syntax-ns#"
   xmlns:svg="http://www.w3.org/2000/svg"
   xmlns="http://www.w3.org/2000/svg"
   xmlns:sodipodi="http://sodipodi.sourceforge.net/DTD/sodipodi-0.dtd"
   xmlns:inkscape="http://www.inkscape.org/namespaces/inkscape"
   version="1.1"
   id="Gopher"
   x="0px"
   y="0px"
   viewBox="0 0 281.6 281.6"
   enable-background="new 0 0 215.6 281.6"
   xml:space="preserve"
   inkscape:version="0.48.3.1 r9886"
   width="100%"
   height="100%"
   sodipodi:docname="gopher-front.svg"><metadata
   id="metadata47"><rdf:RDF><cc:Work
       rdf:about=""><dc:format>image/svg+xml</dc:format><dc:type
         rdf:resource="http://purl.org/dc/dcmitype/StillImage" /></cc:Work></rdf:RDF></metadata><defs
   id="defs45"><clipPath
     clipPathUnits="userSpaceOnUse"
     id="clipPath3841"><rect
       style="fill:#000000;fill-opacity:1;stroke:none"
       id="rect3843"
       width="84"
       height="192"
       x="58"
       y="-13.399994"
       ry="8.9068823" /></clipPath></defs><sodipodi:namedview
   pagecolor="#ffffff"
   bordercolor="#666666"
   borderopacity="1"
   objecttolerance="10"
   gridtolerance="10"
   guidetolerance="10"
   inkscape:pageopacity="0"
   inkscape:pageshadow="2"
   inkscape:window-width="1535"
   inkscape:window-height="876"
   id="namedview43"
   showgrid="false"
   units="px"
   fit-margin-left="0"
   inkscape:zoom="2.8284271"
   inkscape:cx="115.74327"
   inkscape:cy="123.13909"
   inkscape:window-x="65"
   inkscape:window-y="24"
   inkscape:window-maximized="1"
   inkscape:current-layer="Gopher" />
<g
   id="g3"
   transform="translate(56.000385,-9.7694824e-5)">
	<path
   d="m 207.3,44.6 c -6.7,-13.7 -22.9,-1.6 -27,-5.9 -21,-21.6 -46.4,-27 -66.3,-28 0,0 -9,0 -11,0 -20,0.5 -45.4,6.3 -66.3,28 -4.1,4.3 -20.4,-7.8 -27,5.9 -7.7,16 15.7,17.6 14.5,24.7 -2.3,12.8 -0.8,31.8 1,50.5 2.8,31.7 -20.9,107.6 28.4,138.1 9.3,5.8 34.4,9 56.2,9.5 l 0,0 c 0,0 0.1,0 0.1,0 0,0 0.1,0 0.1,0 l 0,0 c 21.8,-0.5 43.9,-3.7 53.2,-9.5 49.4,-30.5 25.7,-106.4 28.6,-138.1 1.7,-18.7 3.2,-37.7 1,-50.5 -1.2,-7.1 22.2,-8.8 14.5,-24.7 z"
   id="path5"
   inkscape:connector-curvature="0"
   style="fill:#8cc5e7" />
	<g
   id="g7">
		<path
   d="m 143.2,54.3 c -33.4,3.9 -28.9,38.7 -16,50 24,21 49,0 46.2,-21.2 -2.5,-20.4 -19.8,-30 -30.2,-28.8 z"
   id="path9"
   inkscape:connector-curvature="0"
   style="fill:#e0dedc" />
		<circle
   cx="145.5"
   cy="84.300003"
   r="11.4"
   id="circle11"
   sodipodi:cx="145.5"
   sodipodi:cy="84.300003"
   sodipodi:rx="11.4"
   sodipodi:ry="11.4"
   style="fill:#111212"
   d="m 156.9,84.300003 c 0,6.296046 -5.10395,11.4 -11.4,11.4 -6.29605,0 -11.4,-5.103954 -11.4,-11.4 0,-6.296046 5.10395,-11.4 11.4,-11.4 6.29605,0 11.4,5.103954 11.4,11.4 z" />
		<circle
   cx="142.5"
   cy="79.400002"
   r="3.5999999"
   id="circle13"
   sodipodi:cx="142.5"
   sodipodi:cy="79.400002"
   sodipodi:rx="3.5999999"
   sodipodi:ry="3.5999999"
   style="fill:#ffffff"
   d="m 146.1,79.400002 c 0,1.988225 -1.61177,3.599999 -3.6,3.599999 -1.98823,0 -3.6,-1.611774 -3.6,-3.599999 0,-1.988226 1.61177,-3.6 3.6,-3.6 1.98823,0 3.6,1.611774 3.6,3.6 z" />
	</g>
	<g
   id="g15">
		<path
   d="m 108.5,107 c -16,2.4 -21.7,7 -20.5,14.2 2,11.8 39.7,10.5 40.9,0.6 1,-8.5 -14.1,-15.7 -20.4,-14.8 z"
   id="path17"
   inkscape:connector-curvature="0"
   style="fill:#b8937f" />
		<path
   d="m 98.2,111.8 c -2.7,9.8 21.7,8.3 21.1,2 -0.3,-3.7 -3.6,-8.4 -12.3,-8.2 -3.4,0.1 -7.6,1.6 -8.8,6.2 z"
   id="path19"
   inkscape:connector-curvature="0" />
		<path
   d="m 99,127.7 c -0.9,0.4 -2.4,10.2 2.2,10.7 3.1,0.3 11.6,1.3 13.6,0 3.9,-2.5 3.5,-8.5 1.3,-10 C 112.4,126 100,127.2 99,127.7 z"
   id="path21"
   inkscape:connector-curvature="0"
   style="fill:#e0dedc" />
	</g>
	<g
   id="g23">
		<path
   d="m 73.6,54.3 c 33.4,3.9 28.9,38.7 16,50 -24,21 -49,0 -46.2,-21.2 2.6,-20.4 19.9,-30 30.2,-28.8 z"
   id="path25"
   inkscape:connector-curvature="0"
   style="fill:#e0dedc" />
		<circle
   cx="71.400002"
   cy="84.300003"
   r="11.4"
   id="circle27"
   sodipodi:cx="71.400002"
   sodipodi:cy="84.300003"
   sodipodi:rx="11.4"
   sodipodi:ry="11.4"
   style="fill:#111212"
   d="m 82.800001,84.300003 c 0,6.296046 -5.103954,11.4 -11.399999,11.4 -6.296046,0 -11.4,-5.103954 -11.4,-11.4 0,-6.296046 5.103954,-11.4 11.4,-11.4 6.296045,0 11.399999,5.103954 11.399999,11.4 z" />
		<circle
   cx="74.400002"
   cy="79.400002"
   r="3.5999999"
   id="circle29"
   sodipodi:cx="74.400002"
   sodipodi:cy="79.400002"
   sodipodi:rx="3.5999999"
   sodipodi:ry="3.5999999"
   style="fill:#ffffff"
   d="m 78.000001,79.400002 c 0,1.988225 -1.611774,3.599999 -3.599999,3.599999 -1.988226,0 -3.6,-1.611774 -3.6,-3.599999 0,-1.988226 1.611774,-3.6 3.6,-3.6 1.988225,0 3.599999,1.611774 3.599999,3.6 z" />
	</g>
	<path
   d="m 193.6,186.7 c 11,0.1 5.6,-23.5 -1.2,-18.8 -3.3,2.3 -3.9,7.6 -3.9,12.1 0,2.5 2,6.6 5.1,6.7 z"
   id="path31"
   inkscape:connector-curvature="0"
   style="fill:#b8937f" />
	<path
   d="m 23.3,186.7 c -11,0.1 -5.6,-23.5 1.2,-18.8 3.3,2.3 3.9,7.6 3.9,12.1 0,2.5 -2,6.6 -5.1,6.7 z"
   id="path33"
   inkscape:connector-curvature="0"
   style="fill:#b8937f" />
	<path
   d="m 172.7,259.2 c -6,-8.9 -11.4,-2 -20.1,2.4 -4.1,2.1 6.8,9.6 19,4 3.2,-1.5 3.1,-3.5 1.1,-6.4 z"
   id="path35"
   inkscape:connector-curvature="0"
   style="fill:#b8937f" />
	<path
   d="m 44.2,260.2 c 6,-8.9 11.4,-2 20.1,2.4 4.1,2.1 -6.8,9.6 -19,4 -3.2,-1.5 -3.1,-3.5 -1.1,-6.4 z"
   id="path37"
   inkscape:connector-curvature="0"
   style="fill:#b8937f" />
	<path
   d="m 188.6,47 c -0.6,2.1 2.1,1.8 3.1,8.3 0.4,2.4 9,-3.5 5.5,-7.8 -2.9,-3.6 -8.1,-2.6 -8.6,-0.5 z"
   id="path39"
   inkscape:connector-curvature="0"
   style="fill:#3c89bf" />
	<path
   d="m 28.3,47 c 0.6,2.1 -2.1,1.8 -3.1,8.3 -0.4,2.4 -9,-3.5 -5.5,-7.8 2.8,-3.6 8,-2.6 8.6,-0.5 z"
   id="path41"
   inkscape:connector-curvature="0"
   style="fill:#3c89bf" />
</g>
<path
   style="fill:#2ecc71;fill-opacity:1;stroke:#27ae60;stroke-width:5.99999987;stroke-linejoin:round;stroke-miterlimit:4;stroke-opacity:1;stroke-dasharray:none"
   d="m 84.999998,111.6 c 14.248692,14.2487 44.652902,10 55.000002,10 0,19.22842 0,37.08658 0,50 0,30.45968 -23.02803,79.99999 -55.000002,79.99999 -33.493767,0 -54.999999,-49.0798 -54.999999,-79.99999 0,-12.93113 0,-35.94767 0,-50 10.362812,0 40.813306,4.18669 54.999999,-10 z"
   id="path3024"
   inkscape:connector-curvature="0"
   sodipodi:nodetypes="cccsccc" /><path
   style="fill:none;stroke:#ffffff;stroke-width:11.99999974;stroke-linecap:round;stroke-linejoin:round;stroke-miterlimit:4;stroke-opacity:1;stroke-dasharray:none"
   d="m 64.999998,171.6 15,15 L 110,156.6"
   id="path3813"
   inkscape:connector-curvature="0"
   sodipodi:nodetypes="ccc" /><path
   style="opacity:0.06;fill:#000000;fill-opacity:1;stroke:#000000;stroke-width:6;stroke-linejoin:round;stroke-miterlimit:4;stroke-opacity:1;stroke-dasharray:none"
   d="m 58.000002,14.726663 c 14.24869,14.248698 44.652898,10 54.999998,10 0,19.228418 0,37.086578 0,49.999998 C 113,105.18634 89.971971,154.72665 58.000002,154.72665 24.506231,154.72665 3,105.64685 3,74.726661 3,61.795531 3,38.778991 3,24.726663 c 10.362812,0 40.813302,4.186688 55.000002,-10 z"
   id="path3024-6"
   inkscape:connector-curvature="0"
   sodipodi:nodetypes="cccsccc"
   clip-path="url(#clipPath3841)"
   transform="translate(26.999998,96.873344)" /></svg>