<?xml version="1.0" standalone="no"?>
<!DOCTYPE svg PUBLIC "-//W3C//DTD SVG 20010904//EN"
 "http://www.w3.org/TR/2001/REC-SVG-20010904/DTD/svg10.dtd">
<svg version="1.0" xmlns="http://www.w3.org/2000/svg"
 width="926.640000pt" height="926.640000pt" viewBox="0 0 926.640000 926.640000"
 preserveAspectRatio="xMidYMid meet">
<metadata>
Created by potrace 1.10, written by Peter Selinger 2001-2011
</metadata>
<g transform="translate(0.000000,926.640000) scale(0.024000,-0.024000)"
fill="#000000" stroke="none">
<path fill="#000000" stroke="none" d="M19500 38479 c-107 -4 -220 -11 -250
-14 -30 -4 -107 -8 -170 -10 -63 -1 -142 -8 -175 -14 -80 -15 -291 -32 -445
-36 -95 -3 -139 -8 -184 -24 -33 -12 -83 -21 -112 -21 -29 0 -88 -11 -131 -25
-43 -14 -88 -25 -100 -25 -12 0 -59 -9 -105 -20 -45 -11 -116 -22 -158 -26
-69 -6 -136 -23 -405 -106 -55 -17 -120 -34 -145 -39 -25 -5 -136 -38 -247
-74 -110 -36 -214 -65 -230 -65 -15 0 -82 -14 -148 -31 -66 -17 -145 -35 -176
-40 -31 -4 -80 -18 -108 -29 -29 -11 -66 -20 -84 -20 -18 -1 -57 -10 -87 -21
-30 -11 -82 -29 -114 -39 -33 -11 -91 -33 -130 -49 -133 -57 -221 -88 -266
-95 -25 -4 -94 -31 -155 -60 -60 -29 -141 -68 -180 -86 -181 -84 -368 -179
-450 -229 -49 -30 -121 -69 -160 -87 -38 -18 -91 -49 -117 -68 -26 -20 -68
-45 -92 -56 -25 -10 -65 -37 -88 -58 -51 -47 -129 -94 -184 -112 -78 -25 -283
-131 -359 -186 -44 -31 -102 -66 -130 -78 -27 -13 -63 -34 -80 -48 -16 -14
-82 -60 -145 -103 -63 -43 -126 -87 -140 -97 -14 -9 -51 -26 -82 -37 -74 -25
-256 -147 -339 -227 -15 -14 -50 -40 -77 -58 -28 -17 -92 -57 -144 -90 -114
-71 -193 -131 -279 -210 -36 -34 -93 -79 -128 -101 -34 -22 -101 -66 -149 -98
-48 -31 -120 -76 -160 -100 -40 -23 -121 -72 -179 -109 -58 -37 -131 -77 -162
-88 -32 -12 -98 -53 -153 -95 -53 -41 -120 -84 -150 -96 -29 -11 -77 -39 -106
-61 -30 -22 -79 -51 -110 -64 -31 -14 -75 -34 -97 -46 -22 -11 -74 -38 -117
-60 -42 -22 -93 -54 -115 -72 -49 -41 -132 -97 -255 -170 -70 -41 -114 -76
-155 -121 -47 -54 -65 -67 -111 -80 -41 -12 -66 -28 -102 -66 -35 -36 -61 -53
-99 -65 -38 -11 -65 -29 -99 -63 -62 -63 -123 -137 -154 -186 -34 -53 -65 -81
-113 -101 -22 -9 -54 -27 -71 -39 -17 -13 -54 -37 -82 -54 -61 -36 -244 -193
-315 -271 -107 -117 -266 -265 -357 -332 -52 -39 -117 -92 -145 -118 -27 -26
-69 -60 -93 -74 -23 -15 -59 -49 -78 -76 -20 -28 -45 -55 -55 -61 -11 -5 -40
-46 -65 -89 -30 -50 -81 -115 -141 -177 -52 -53 -119 -135 -150 -182 -31 -47
-69 -99 -84 -116 -15 -16 -62 -80 -106 -141 -43 -61 -118 -164 -168 -230 -88
-117 -160 -232 -321 -516 -137 -239 -181 -329 -212 -431 -17 -54 -42 -126 -56
-160 -13 -34 -29 -91 -36 -127 -6 -36 -22 -100 -36 -143 -31 -94 -53 -113
-117 -103 -115 19 -124 18 -171 -2 -25 -12 -70 -43 -99 -70 -73 -69 -151 -102
-262 -112 -59 -5 -111 -16 -150 -33 -71 -30 -229 -119 -312 -175 -32 -22 -113
-72 -180 -111 -68 -40 -149 -92 -180 -115 -32 -23 -83 -59 -113 -79 -67 -44
-273 -246 -355 -347 -33 -41 -92 -108 -130 -150 -39 -41 -88 -105 -109 -142
-22 -37 -60 -92 -86 -123 -40 -48 -51 -70 -78 -168 -18 -63 -32 -134 -32 -159
0 -25 -9 -70 -19 -101 -11 -31 -25 -103 -31 -159 -15 -145 -27 -216 -45 -267
-8 -24 -15 -64 -15 -89 0 -24 -5 -62 -11 -83 -10 -33 -9 -47 14 -111 31 -88
35 -113 47 -248 5 -58 21 -150 35 -205 14 -55 25 -122 24 -150 -1 -51 25 -171
43 -192 23 -28 60 -155 72 -248 12 -83 20 -111 52 -169 22 -39 59 -85 85 -107
55 -46 129 -169 160 -265 30 -92 48 -117 157 -210 163 -139 348 -228 468 -225
29 0 71 -6 94 -14 23 -8 74 -15 113 -15 65 0 76 -3 147 -45 42 -25 99 -49 126
-54 27 -6 69 -17 93 -25 24 -9 55 -16 70 -16 34 0 176 -45 221 -69 19 -11 67
-28 105 -39 73 -21 221 -86 315 -138 49 -28 86 -44 197 -84 25 -9 36 -23 54
-68 12 -32 39 -95 60 -142 21 -47 45 -114 54 -150 9 -36 41 -144 70 -240 30
-96 58 -195 64 -220 52 -227 97 -396 121 -450 15 -36 33 -85 40 -109 6 -24 23
-69 37 -100 13 -31 42 -105 64 -165 41 -114 69 -169 126 -249 19 -26 50 -89
68 -140 48 -133 69 -177 104 -221 17 -21 31 -43 31 -48 0 -15 55 -142 105
-243 24 -49 63 -143 85 -207 25 -70 58 -139 80 -171 36 -50 111 -199 125 -249
4 -13 19 -50 35 -83 16 -33 52 -112 80 -175 28 -63 69 -153 90 -200 22 -47 44
-107 50 -135 6 -27 18 -70 26 -95 9 -25 26 -79 38 -120 19 -65 125 -296 212
-465 14 -27 44 -85 66 -129 21 -43 58 -99 82 -125 61 -66 102 -130 127 -197
16 -43 38 -74 79 -114 56 -54 78 -84 291 -396 58 -86 135 -188 171 -227 36
-40 73 -88 83 -107 10 -19 48 -78 85 -130 45 -64 73 -115 85 -155 22 -77 54
-139 103 -201 22 -28 47 -64 55 -81 9 -16 31 -48 51 -71 19 -23 40 -59 46 -80
7 -20 31 -62 54 -92 22 -30 51 -72 64 -93 12 -22 36 -56 52 -77 17 -21 36 -54
42 -72 6 -18 36 -78 66 -133 30 -55 60 -114 66 -130 11 -31 148 -252 239 -387
148 -218 289 -440 301 -475 7 -21 27 -60 44 -87 18 -27 37 -65 43 -85 7 -19
31 -63 54 -97 24 -34 48 -79 55 -101 7 -21 29 -62 48 -92 19 -30 41 -78 49
-105 8 -28 39 -89 69 -136 68 -109 161 -377 210 -610 34 -156 41 -204 64 -410
11 -101 24 -188 39 -250 19 -86 33 -165 42 -249 5 -47 14 -101 19 -120 5 -20
10 -58 10 -86 0 -27 9 -87 20 -133 11 -46 20 -104 20 -130 0 -26 9 -79 20
-117 11 -38 20 -87 20 -108 0 -21 14 -69 30 -107 17 -38 30 -74 30 -80 0 -7
13 -51 29 -99 16 -47 41 -128 55 -180 15 -52 40 -125 56 -162 22 -50 30 -83
30 -126 0 -33 6 -79 14 -104 14 -45 26 -115 47 -274 6 -49 20 -117 31 -150 11
-33 23 -91 28 -130 5 -38 13 -92 19 -120 25 -122 35 -228 33 -327 -2 -72 2
-127 13 -166 8 -33 15 -86 15 -118 0 -33 7 -93 17 -134 12 -58 16 -124 15
-295 -1 -190 2 -230 19 -293 14 -53 19 -103 18 -175 -1 -177 7 -359 21 -444
11 -66 11 -92 1 -137 -11 -47 -10 -64 5 -116 14 -52 15 -71 6 -128 -18 -104
-22 -336 -7 -401 16 -69 14 -334 -4 -476 -7 -55 -16 -138 -20 -185 -11 -112
-38 -318 -53 -400 -18 -100 -19 -758 -1 -833 11 -47 12 -87 4 -210 l-10 -152
44 -173 c29 -109 45 -194 45 -231 0 -45 9 -82 40 -160 31 -77 40 -114 40 -159
0 -32 7 -81 15 -109 8 -28 20 -74 25 -103 6 -30 21 -76 34 -104 13 -29 27 -81
30 -121 9 -85 17 -115 67 -226 45 -101 89 -256 89 -317 0 -23 -6 -57 -14 -75
-12 -30 -74 -91 -145 -145 -30 -23 -48 -53 -124 -207 -21 -44 -58 -111 -82
-150 -61 -97 -72 -146 -56 -230 8 -39 11 -87 7 -119 -12 -93 40 -179 169 -282
95 -77 199 -128 298 -149 102 -21 147 -19 224 12 67 27 71 28 270 26 155 -2
209 -6 230 -17 38 -20 92 -79 143 -156 23 -36 79 -103 125 -150 82 -85 143
-160 225 -278 30 -43 73 -86 135 -132 96 -73 143 -118 194 -190 17 -25 102
-110 189 -188 86 -79 193 -181 237 -227 45 -46 105 -97 137 -115 32 -17 107
-79 168 -136 69 -66 128 -112 157 -125 25 -11 63 -35 83 -53 57 -51 118 -83
195 -102 39 -10 108 -37 155 -61 47 -24 115 -53 152 -64 44 -13 79 -31 103
-53 51 -49 48 -77 -28 -232 -58 -117 -108 -250 -137 -361 -13 -52 -66 -143
-228 -391 -35 -54 -82 -135 -104 -181 -23 -46 -63 -113 -89 -147 -26 -35 -50
-73 -54 -86 -4 -13 -25 -52 -45 -88 -21 -36 -46 -92 -55 -125 -9 -33 -30 -82
-45 -110 -34 -60 -70 -184 -70 -241 0 -23 7 -61 15 -84 8 -23 15 -64 15 -89 0
-65 26 -158 58 -209 15 -24 43 -73 62 -110 30 -56 44 -71 85 -92 90 -45 161
-89 181 -111 23 -26 75 -49 224 -99 163 -54 280 -65 405 -40 104 22 190 19
250 -9 50 -23 193 -48 332 -58 61 -4 81 -1 140 22 37 15 88 39 113 54 25 15
66 35 92 45 29 10 58 31 75 53 15 19 50 58 77 86 53 55 66 80 90 174 16 59 70
183 121 272 14 24 25 57 25 72 0 15 13 56 30 91 16 34 30 70 30 78 0 8 12 35
26 60 28 49 84 199 119 322 32 109 88 197 202 316 93 97 100 102 138 102 49 0
74 16 128 84 23 29 77 92 119 140 42 48 105 133 139 189 34 56 78 117 96 136
l34 34 102 -7 c56 -4 120 -12 142 -18 71 -18 242 -13 315 10 87 27 270 37 370
20 97 -16 244 -16 345 0 44 7 143 17 220 22 319 20 354 25 480 69 66 22 152
47 190 55 77 15 265 66 334 90 24 9 61 16 83 16 22 0 74 14 116 32 75 30 83
32 277 39 200 7 264 17 376 58 30 10 81 27 114 36 33 9 103 40 155 68 92 50
98 52 195 57 93 5 108 9 205 54 106 49 259 96 316 96 18 0 76 16 130 36 148
55 245 84 279 84 17 0 57 12 90 26 33 15 101 41 150 59 104 38 205 86 360 172
61 34 139 69 175 78 36 9 80 25 97 35 18 11 56 26 85 35 29 8 101 33 159 55
58 22 128 47 155 54 183 53 365 141 567 275 76 50 148 91 160 91 21 0 124 35
324 109 45 17 100 42 121 56 22 14 64 35 93 46 30 12 86 42 124 68 39 27 81
52 95 56 14 4 43 20 64 36 22 16 44 29 50 29 17 0 209 92 251 120 22 15 78 44
125 65 106 47 197 97 277 151 35 23 92 52 128 64 36 12 93 40 126 63 62 43
196 125 282 175 79 44 306 190 392 251 44 32 127 84 184 117 56 32 143 89 191
125 48 36 103 76 122 87 19 12 52 36 74 53 21 17 75 51 119 76 74 41 294 209
426 325 30 27 100 85 157 130 197 160 257 210 312 262 30 29 75 67 100 85 83
59 133 102 160 140 15 21 51 54 79 75 28 21 70 63 93 94 24 31 89 91 148 136
104 80 435 401 519 503 31 39 62 62 116 89 69 34 78 36 132 29 32 -4 79 -7
105 -6 31 1 74 -10 123 -29 42 -17 85 -30 97 -30 11 0 36 -17 55 -37 41 -43
158 -131 192 -144 88 -34 162 -97 364 -307 71 -74 247 -226 293 -254 98 -59
149 -71 282 -66 99 3 124 7 162 27 25 13 63 29 85 36 98 32 239 104 323 165
63 45 209 254 248 353 29 73 45 92 107 124 59 29 86 81 87 160 0 29 6 85 14
125 44 226 45 255 11 353 -13 40 -31 117 -39 171 -17 111 -45 200 -76 245 -12
16 -47 47 -78 68 -31 22 -82 69 -112 106 -30 36 -73 87 -96 113 -22 26 -53 69
-68 95 -15 27 -46 60 -67 75 -22 15 -77 54 -122 87 -45 33 -94 68 -108 77 -43
28 -206 88 -237 88 -15 0 -65 13 -109 30 -99 36 -313 85 -408 94 -152 15 -308
49 -337 74 -25 21 -23 73 6 181 32 121 61 196 90 234 25 35 46 88 46 120 0 11
19 61 42 111 40 87 42 95 41 181 -2 108 35 291 72 362 14 25 25 59 25 75 0 16
7 45 16 66 18 42 35 135 38 202 1 25 11 74 23 110 12 39 25 124 33 210 6 80
17 177 22 215 13 87 14 132 4 167 -6 22 -2 33 28 66 26 29 36 49 36 73 0 19 9
54 20 78 11 24 20 65 20 92 0 30 8 65 20 89 13 25 20 59 20 92 0 65 20 163 49
244 l22 60 -20 82 c-25 97 -21 220 10 319 17 50 19 77 14 145 -5 63 -3 93 9
127 19 51 20 114 5 174 -9 36 -6 55 16 132 26 90 34 194 19 270 -4 24 1 45 20
81 16 31 26 65 26 92 0 29 10 63 32 104 31 59 31 62 19 119 -10 49 -9 63 5 99
13 33 14 46 5 66 -17 38 -13 62 14 98 31 41 31 71 1 155 -20 57 -23 81 -21
171 3 106 17 210 32 233 9 13 25 267 24 367 -1 35 -8 83 -17 105 -12 32 -13
47 -4 70 14 37 13 233 -1 291 -9 35 -8 49 5 75 22 43 22 169 0 211 -11 21 -15
47 -12 80 7 73 -17 277 -37 317 -15 29 -18 71 -21 330 -1 163 2 323 7 356 5
33 11 120 13 194 4 118 7 136 26 156 11 12 27 49 36 82 14 57 14 63 -6 112
-16 41 -20 74 -20 160 0 70 -5 123 -15 150 -11 32 -12 48 -3 69 6 15 12 59 13
97 2 44 12 98 29 145 29 85 33 138 11 179 -13 25 -13 37 1 102 20 96 10 417
-14 464 -10 20 -17 65 -19 134 -2 57 -8 121 -14 143 -6 23 -7 68 -3 107 4 47
2 75 -6 91 -13 24 -24 98 -39 250 -5 47 -18 112 -30 144 -17 49 -21 82 -21
191 0 102 -4 144 -19 191 -23 71 -44 340 -35 441 4 47 2 83 -7 109 -7 21 -14
91 -15 154 -3 162 -26 357 -54 459 -6 25 -9 64 -5 90 5 35 1 60 -14 99 -12 29
-21 74 -21 100 0 26 -11 81 -25 122 -40 122 -75 262 -75 302 0 21 -9 61 -21
90 -17 43 -20 64 -14 113 10 87 8 109 -21 178 -16 37 -29 95 -34 143 -6 61
-17 100 -45 160 -23 49 -40 104 -46 145 -4 36 -16 88 -27 115 -22 59 -19 77
16 94 55 25 122 23 195 -4 64 -25 72 -26 128 -14 73 15 135 2 226 -48 34 -19
73 -34 86 -34 14 0 60 -14 103 -31 64 -26 85 -30 118 -24 23 4 69 9 104 11 35
1 84 9 110 18 26 8 64 17 84 20 90 16 141 39 242 114 58 42 125 89 148 103 24
14 48 36 54 50 7 13 30 63 53 110 22 47 41 95 41 106 0 11 7 40 15 63 8 23 15
73 15 110 0 60 3 71 31 106 45 56 66 103 93 201 13 49 36 113 50 143 40 84 36
139 -21 295 -26 71 -63 153 -83 181 -41 62 -174 184 -239 221 -25 15 -63 42
-85 61 -21 19 -54 40 -72 48 -19 8 -54 29 -78 48 -41 31 -90 47 -211 71 -50 9
-327 38 -370 37 -89 0 -306 -23 -351 -38 -71 -22 -260 -30 -343 -14 -61 11
-76 10 -162 -9 -59 -13 -127 -21 -182 -20 -48 0 -123 -3 -167 -7 -116 -10
-132 -1 -182 104 -28 59 -43 106 -48 152 -4 36 -15 80 -24 97 -9 18 -23 63
-32 100 -10 46 -25 78 -43 98 -38 40 -43 60 -30 107 9 34 7 50 -16 116 -14 43
-32 91 -40 107 -37 78 -94 214 -105 248 -16 50 -133 271 -195 367 -26 41 -75
111 -109 155 -34 44 -75 101 -91 128 -114 181 -211 321 -239 342 -23 17 -40
45 -55 84 -22 60 -47 88 -121 134 -27 17 -48 49 -95 140 -45 88 -68 123 -92
137 -36 22 -47 48 -38 91 9 40 -16 79 -51 79 -50 0 -64 16 -64 75 0 68 -15 85
-69 78 -37 -5 -40 -4 -66 41 -15 25 -33 65 -40 89 -7 23 -22 66 -34 95 -12 29
-21 65 -21 80 0 41 -71 192 -134 285 -42 62 -56 92 -56 119 0 19 -7 55 -15 78
-8 23 -15 56 -15 73 0 50 -21 105 -58 148 -38 44 -99 195 -109 269 -8 59 -41
146 -93 245 -37 71 -41 85 -36 126 6 41 2 56 -33 120 -48 91 -71 167 -71 233
-1 28 -10 76 -21 106 -11 30 -29 82 -39 115 -11 33 -33 101 -50 150 -17 50
-35 112 -41 140 -6 30 -22 65 -42 90 -26 32 -33 51 -38 105 -5 55 -13 79 -53
145 -27 43 -61 110 -77 148 -15 39 -44 96 -64 128 -24 39 -35 69 -35 96 0 23
-10 57 -25 83 -14 25 -33 61 -41 80 -9 19 -25 48 -36 63 -11 15 -24 43 -29 62
-6 19 -25 55 -44 79 -18 24 -41 58 -49 75 -9 16 -38 55 -65 86 -42 48 -58 79
-110 218 -75 203 -89 235 -113 270 -11 15 -33 63 -48 106 -15 43 -41 98 -57
122 -37 55 -128 226 -138 259 -13 42 -146 254 -204 325 -13 17 -34 53 -47 82
-13 28 -43 74 -68 102 -25 28 -55 70 -67 93 -11 22 -40 62 -63 87 -23 25 -62
75 -86 111 -24 36 -64 97 -90 135 -26 39 -93 115 -149 170 -56 55 -105 111
-108 125 -4 14 -14 43 -24 65 -25 54 -24 55 18 111 47 61 123 268 123 334 0
14 22 90 49 170 52 151 68 191 102 250 51 90 63 126 70 220 5 67 14 113 32
155 14 33 33 103 42 155 23 138 49 237 81 305 29 60 29 61 26 245 -2 232 -13
350 -41 465 -13 50 -27 110 -33 135 -6 25 -14 95 -18 155 -8 135 -52 264 -109
328 -20 22 -47 59 -61 83 -24 42 -183 194 -202 194 -5 0 -35 24 -66 53 -31 30
-78 68 -105 86 -26 18 -54 42 -62 55 -9 13 -32 32 -53 42 -84 43 -140 81 -194
130 -32 29 -71 55 -88 59 -17 4 -53 26 -78 48 -149 132 -240 174 -499 232
-136 30 -199 53 -247 90 -31 24 -41 26 -74 19 -69 -15 -144 -8 -209 20 -34 14
-80 26 -102 26 -22 0 -62 5 -89 11 -48 11 -52 11 -163 -38 -144 -64 -227 -90
-309 -98 -135 -14 -248 -51 -445 -146 -105 -50 -226 -112 -270 -137 -44 -25
-98 -55 -120 -66 -22 -12 -75 -50 -119 -86 -77 -63 -106 -104 -106 -152 0 -35
-23 -62 -91 -107 -141 -94 -255 -81 -456 52 -61 40 -130 79 -153 86 -24 7 -66
28 -95 47 -33 22 -72 38 -109 44 -36 6 -90 27 -144 56 -126 69 -179 96 -247
127 -33 15 -82 45 -110 67 -27 22 -63 42 -80 46 -16 3 -95 28 -175 54 -80 27
-173 53 -207 59 -33 5 -112 25 -175 44 -122 38 -194 57 -448 119 -91 22 -205
51 -255 64 -49 14 -137 31 -195 39 -58 8 -132 21 -165 29 -178 41 -261 56
-360 65 -60 6 -121 12 -135 15 -14 2 -113 0 -220 -5z"/>
<path fill="#ffffff" stroke="none" d="M19460 38276 c52 -11 108 -12 281 -4
206 9 218 8 267 -11 89 -35 187 -50 375 -57 211 -7 272 -20 359 -76 68 -44
234 -108 281 -108 17 0 86 -18 153 -40 68 -22 138 -40 157 -40 52 0 131 -27
257 -87 70 -34 136 -58 171 -63 82 -12 375 -139 453 -197 99 -73 173 -118 256
-154 41 -18 93 -47 115 -64 22 -18 67 -49 100 -70 33 -21 76 -51 96 -67 19
-16 66 -43 102 -61 57 -27 104 -68 313 -272 135 -132 255 -253 267 -269 11
-16 37 -69 57 -117 34 -83 44 -96 180 -238 80 -83 165 -165 190 -183 25 -18
90 -73 145 -122 65 -58 122 -99 162 -117 46 -21 77 -46 124 -98 69 -77 123
-120 186 -144 84 -33 335 -217 458 -337 50 -48 190 -187 312 -309 188 -189
231 -227 285 -253 38 -18 89 -54 129 -94 65 -62 69 -64 119 -64 50 0 54 -2
117 -62 42 -40 76 -84 94 -122 35 -71 49 -88 154 -176 66 -55 83 -76 98 -118
21 -58 78 -122 134 -151 51 -26 75 -54 109 -126 17 -39 53 -87 100 -135 46
-48 82 -96 97 -130 14 -30 51 -91 83 -135 31 -44 89 -125 127 -180 38 -55 97
-134 131 -175 35 -41 91 -115 126 -165 34 -49 81 -111 102 -138 27 -31 60 -97
103 -200 68 -167 111 -247 186 -351 28 -37 54 -78 59 -90 4 -13 29 -65 53
-117 25 -52 62 -148 82 -214 40 -135 116 -293 176 -369 71 -89 109 -197 119
-336 8 -119 31 -197 84 -284 19 -32 43 -82 52 -110 9 -28 27 -72 40 -98 13
-25 28 -68 34 -95 6 -26 25 -66 42 -87 43 -54 77 -142 78 -198 0 -30 8 -60 20
-80 11 -18 20 -46 20 -61 0 -15 19 -67 43 -115 24 -48 49 -116 56 -152 37
-190 83 -313 228 -608 41 -84 90 -203 109 -265 19 -62 48 -141 65 -177 17 -36
42 -103 55 -150 28 -94 68 -172 123 -239 78 -96 121 -165 121 -194 0 -36 71
-188 113 -241 19 -24 33 -56 38 -88 9 -59 28 -83 75 -98 l34 -12 -2 -61 c-1
-62 15 -111 44 -134 7 -6 30 -16 51 -22 45 -15 57 -35 57 -98 0 -38 8 -62 33
-104 19 -30 49 -79 67 -109 63 -104 72 -115 112 -144 25 -18 48 -47 62 -80 13
-28 36 -66 50 -85 17 -23 26 -48 26 -71 0 -37 15 -65 61 -115 15 -16 36 -52
47 -80 11 -27 38 -82 60 -121 23 -39 62 -118 87 -175 26 -57 62 -131 80 -164
18 -33 49 -105 70 -160 35 -94 47 -127 115 -302 15 -40 39 -92 54 -116 14 -25
34 -69 46 -99 11 -30 45 -103 75 -163 30 -59 55 -118 55 -131 0 -36 29 -114
61 -165 16 -25 33 -69 39 -97 5 -28 17 -68 26 -89 9 -21 47 -128 84 -238 38
-110 87 -252 109 -315 23 -63 46 -141 51 -173 5 -32 20 -81 34 -108 14 -27 26
-63 26 -81 0 -30 17 -95 61 -235 10 -34 19 -82 19 -106 0 -25 7 -64 15 -87 8
-23 15 -68 15 -100 0 -32 6 -75 14 -96 7 -22 16 -99 20 -173 4 -73 12 -145 19
-160 6 -14 12 -66 13 -116 3 -144 14 -246 34 -310 10 -33 25 -121 34 -196 8
-75 24 -161 35 -190 14 -38 21 -93 25 -189 10 -221 26 -400 43 -480 9 -41 19
-113 23 -160 9 -101 48 -260 92 -368 24 -58 33 -102 40 -177 4 -55 12 -125 18
-155 5 -30 12 -84 15 -120 3 -36 14 -114 25 -175 10 -60 26 -198 35 -305 30
-356 43 -448 86 -595 11 -38 27 -92 35 -120 10 -34 14 -104 14 -230 0 -127 5
-196 15 -235 8 -30 15 -88 15 -128 0 -47 10 -115 29 -190 l29 -117 7 -467 c6
-460 6 -469 -16 -564 -20 -87 -21 -102 -9 -164 8 -44 11 -113 8 -196 -4 -91
-1 -143 9 -181 14 -54 8 -209 -17 -423 -12 -97 -5 -253 15 -355 11 -54 13
-165 10 -490 -1 -231 -6 -434 -10 -452 -4 -18 -2 -54 5 -82 10 -44 9 -56 -11
-110 -19 -54 -21 -74 -16 -169 4 -81 1 -122 -11 -169 -15 -57 -15 -65 1 -116
21 -66 21 -86 3 -151 -8 -28 -20 -91 -26 -141 -6 -49 -22 -126 -35 -170 -16
-56 -25 -119 -30 -208 -4 -70 -13 -173 -21 -230 -17 -113 -36 -348 -38 -472
-1 -81 -14 -155 -43 -255 -9 -30 -20 -98 -24 -150 -11 -138 -22 -200 -63 -335
-28 -91 -39 -151 -47 -245 -17 -220 -26 -284 -48 -344 -11 -33 -21 -75 -21
-95 0 -20 -9 -58 -19 -86 -10 -27 -22 -81 -26 -120 -4 -38 -14 -87 -21 -109
-9 -25 -14 -88 -14 -185 -1 -121 -4 -156 -21 -201 -63 -174 -127 -386 -134
-450 -4 -30 -18 -83 -31 -117 -17 -43 -24 -81 -24 -128 0 -107 -34 -277 -89
-440 -16 -49 -37 -135 -46 -190 -34 -211 -32 -208 -195 -525 -27 -52 -62 -136
-79 -187 -17 -50 -60 -149 -95 -220 -89 -176 -186 -379 -186 -388 0 -13 -101
-147 -179 -238 -42 -48 -95 -116 -118 -150 -142 -209 -240 -335 -399 -507
-141 -154 -400 -406 -481 -467 -26 -20 -118 -106 -203 -192 -141 -141 -282
-274 -463 -433 -36 -32 -100 -79 -144 -104 -43 -25 -101 -66 -130 -90 -29 -25
-76 -55 -105 -68 -62 -27 -243 -147 -326 -213 -31 -26 -110 -78 -177 -116 -66
-38 -129 -77 -140 -87 -43 -38 -227 -146 -368 -216 -82 -41 -161 -82 -175 -92
-15 -10 -64 -37 -110 -60 -46 -23 -102 -56 -125 -72 -137 -99 -171 -122 -219
-146 -29 -14 -78 -45 -108 -68 -74 -57 -231 -139 -327 -171 -45 -15 -112 -49
-158 -80 -44 -30 -103 -63 -130 -74 -28 -12 -61 -27 -75 -35 -63 -35 -317
-137 -425 -171 -66 -21 -151 -53 -190 -71 -38 -19 -75 -34 -81 -34 -24 0 -259
-113 -449 -215 -44 -24 -107 -51 -140 -60 -33 -9 -114 -36 -180 -60 -66 -24
-147 -53 -180 -64 -123 -41 -251 -88 -280 -103 -16 -8 -68 -28 -115 -43 -47
-15 -128 -44 -180 -65 -52 -21 -142 -52 -200 -70 -58 -17 -134 -47 -170 -66
-90 -47 -230 -96 -393 -139 -75 -20 -183 -53 -240 -74 -56 -21 -115 -41 -132
-45 -16 -4 -50 -17 -75 -30 -25 -13 -62 -26 -84 -30 -21 -4 -97 -27 -170 -51
-162 -54 -243 -75 -291 -75 -20 0 -64 -11 -98 -24 -34 -13 -78 -27 -97 -30
-19 -4 -60 -19 -90 -35 -61 -31 -245 -93 -420 -141 -63 -17 -153 -42 -200 -55
-87 -24 -163 -40 -261 -55 -30 -4 -91 -19 -135 -33 -59 -19 -112 -27 -214 -32
-74 -4 -153 -12 -175 -18 -22 -7 -112 -13 -200 -14 -488 -7 -591 -11 -629 -27
-27 -11 -70 -16 -141 -16 -85 0 -114 -4 -169 -25 -57 -22 -83 -25 -186 -25
-65 0 -153 -5 -195 -11 -95 -13 -119 -2 -129 62 -7 44 -60 109 -89 109 -8 0
-36 24 -63 52 -54 59 -123 113 -171 133 -18 8 -63 38 -100 68 -98 79 -155 112
-260 153 -98 38 -305 163 -383 232 -136 119 -196 142 -377 142 -108 0 -134 -4
-215 -29 -51 -16 -129 -37 -173 -46 -141 -31 -150 -34 -220 -79 -39 -24 -102
-62 -142 -85 -92 -53 -132 -87 -149 -128 -17 -39 -40 -53 -88 -53 -77 0 -136
43 -136 99 0 23 -57 76 -102 96 -58 23 -176 96 -279 169 -51 37 -130 85 -175
106 -45 22 -95 50 -111 63 -159 132 -340 254 -426 288 -57 23 -143 93 -242
198 -38 41 -113 117 -165 170 -136 139 -277 300 -306 352 -14 24 -47 69 -73
99 -26 30 -60 73 -76 95 -16 22 -59 72 -95 110 -64 69 -96 126 -119 212 -7 26
-22 49 -38 60 -77 52 -232 265 -294 403 -11 25 -44 95 -74 155 -29 61 -77 166
-105 235 -28 69 -62 139 -74 155 -33 43 -64 106 -90 185 -13 38 -33 82 -45 99
-16 22 -27 60 -36 124 -15 112 -22 127 -77 164 -39 26 -45 36 -75 128 -47 147
-63 208 -63 245 0 19 -9 63 -19 99 -47 162 -69 281 -98 539 -3 24 0 63 7 87
10 36 10 51 -3 87 -9 24 -19 73 -22 110 -4 37 -13 91 -21 120 -14 53 -20 261
-8 292 3 9 17 16 29 16 24 0 55 23 55 41 0 5 -7 27 -16 49 -21 52 -13 79 36
113 62 42 64 55 50 272 -12 177 -22 369 -35 675 -3 69 -6 220 -8 336 -2 116
-7 216 -11 222 -4 7 -9 191 -10 410 -2 353 -5 403 -21 451 -15 47 -16 61 -6
102 8 31 10 72 6 113 -4 39 -3 84 4 113 6 26 13 129 15 228 3 129 10 207 24
275 28 132 36 278 17 330 -11 32 -13 69 -8 159 4 80 2 134 -7 169 -15 64 -22
459 -9 555 8 61 6 76 -16 140 -38 107 -55 193 -55 277 0 57 -6 89 -25 135 -36
86 -104 325 -115 407 -6 39 -12 74 -15 78 -5 8 -35 167 -55 290 -6 41 -22 113
-35 160 -13 47 -29 112 -35 145 -7 33 -27 92 -44 130 -18 39 -36 90 -40 114
-3 23 -16 62 -28 84 -12 23 -38 92 -58 152 -67 198 -100 289 -135 370 -95 224
-156 535 -130 656 7 34 4 41 -33 80 -39 43 -92 169 -92 219 0 11 -9 43 -19 72
-11 29 -23 69 -26 88 -4 19 -19 60 -32 90 -28 62 -68 173 -87 240 -7 25 -25
69 -41 99 -15 30 -34 77 -42 105 -8 28 -25 69 -38 91 -13 22 -28 65 -35 95 -7
30 -39 109 -72 175 -33 66 -67 144 -74 174 -8 30 -39 99 -68 155 -30 56 -63
127 -74 158 -11 31 -31 72 -45 90 -14 18 -34 51 -45 73 -11 22 -35 54 -52 70
-34 32 -85 106 -120 174 -11 22 -53 80 -93 128 -40 49 -84 104 -97 123 -13 19
-65 78 -115 130 -70 72 -104 118 -144 193 -48 89 -68 114 -216 260 -144 144
-167 171 -203 243 -52 104 -113 190 -206 293 -41 45 -88 109 -105 141 -17 32
-52 86 -78 121 -25 35 -60 93 -76 128 -16 36 -46 90 -67 121 -20 30 -69 115
-109 187 -40 73 -102 181 -138 240 -36 60 -88 147 -114 196 -26 48 -69 120
-96 160 -27 39 -55 88 -63 107 -8 19 -48 98 -89 175 -76 144 -110 211 -258
515 -47 96 -94 193 -106 215 -20 40 -80 153 -111 210 -9 17 -16 47 -16 68 0
25 -16 73 -45 134 -25 52 -45 103 -45 113 0 11 -8 43 -19 72 -10 29 -24 87
-31 128 -13 83 -28 140 -41 155 -4 6 -17 37 -30 70 -12 33 -32 74 -45 92 -25
33 -84 156 -125 258 -33 84 -114 230 -160 291 -21 28 -53 82 -70 120 -17 38
-47 86 -65 107 -19 20 -34 42 -34 48 0 7 -19 55 -41 108 -23 53 -56 150 -74
216 -18 66 -49 167 -68 225 -49 147 -77 250 -77 283 0 16 -13 61 -28 100 -16
40 -36 110 -46 157 -10 47 -26 110 -36 140 -10 30 -20 75 -23 100 -3 25 -11
77 -17 115 -6 39 -8 102 -5 140 4 45 2 81 -5 100 -22 54 -40 158 -49 265 -6
90 -13 116 -43 180 -40 84 -50 148 -53 315 0 61 -7 151 -14 200 -11 75 -19
255 -22 505 0 25 4 110 10 190 5 80 10 196 10 259 1 102 -2 119 -25 172 l-27
59 10 177 c6 113 5 193 -1 220 -7 32 -5 61 7 115 9 40 22 135 28 211 6 76 14
151 19 165 5 15 11 84 14 153 2 69 9 153 15 185 6 32 15 120 21 194 6 74 16
176 21 225 14 121 12 438 -1 496 -8 34 -8 58 -1 85 6 22 11 70 11 108 0 54 8
88 36 164 28 75 35 105 30 135 -10 63 20 183 64 258 30 49 40 76 40 109 0 42
22 129 61 235 10 28 42 120 72 205 90 255 147 366 292 572 22 31 49 71 60 87
11 16 44 58 73 93 100 118 218 263 287 353 141 183 538 593 769 795 53 47 118
105 145 130 113 107 302 242 451 323 47 25 117 68 155 96 39 27 108 76 155
107 47 32 105 74 130 94 25 21 65 50 90 66 25 15 61 40 80 54 19 15 51 32 70
40 33 12 132 71 249 149 29 19 70 55 90 79 36 44 155 134 221 167 19 9 60 36
90 60 30 23 67 48 82 56 48 25 136 101 286 247 92 90 172 158 213 182 36 22
115 74 175 117 233 166 782 519 889 571 28 13 66 36 85 51 19 14 54 37 77 51
24 14 78 53 120 88 85 68 193 140 289 191 60 32 163 108 301 223 183 153 281
221 408 283 72 35 184 99 250 143 169 112 274 165 395 203 58 17 114 38 125
45 11 7 65 29 120 49 55 20 125 51 155 69 30 18 78 41 105 51 28 10 82 35 120
56 39 20 120 56 180 80 61 23 133 55 160 70 28 15 84 37 125 49 41 12 95 32
120 45 25 12 76 32 114 44 38 12 91 33 117 47 35 17 65 24 109 24 33 0 86 9
117 19 32 11 74 23 93 27 19 3 60 19 90 34 89 44 179 69 280 79 69 7 115 18
167 40 40 17 77 31 83 31 6 0 63 20 127 45 63 25 129 45 147 45 18 0 59 9 91
20 32 11 68 20 79 20 12 0 62 11 111 24 50 13 118 29 153 35 34 7 84 21 110
33 135 59 228 78 467 93 309 20 460 33 520 44 28 6 78 10 111 10 34 1 81 8
105 18 78 29 318 40 419 19z"/>
<path fill="#ffffff" stroke="none" d="M24950 37949 c19 -6 94 -12 165 -13
110 -1 136 -5 170 -23 22 -11 56 -24 75 -28 19 -3 59 -23 88 -42 29 -20 91
-49 138 -65 48 -15 134 -55 193 -88 58 -32 126 -66 151 -76 25 -10 73 -37 107
-60 34 -23 72 -46 85 -50 13 -4 70 -39 128 -79 58 -40 126 -80 151 -90 54 -20
178 -128 217 -189 14 -23 49 -66 78 -96 46 -48 60 -73 105 -190 84 -218 98
-265 112 -383 17 -137 15 -683 -3 -767 -6 -30 -15 -78 -20 -106 -5 -29 -40
-117 -80 -198 -55 -114 -73 -160 -77 -204 -2 -31 -11 -73 -18 -92 -7 -19 -27
-88 -45 -153 -17 -66 -40 -133 -51 -150 -10 -18 -19 -48 -19 -67 0 -19 -7 -64
-15 -100 -8 -36 -20 -90 -26 -122 -9 -49 -17 -62 -60 -103 -46 -43 -54 -47
-89 -42 -21 3 -67 22 -102 43 -67 42 -228 189 -228 209 0 22 -67 100 -111 130
-73 48 -110 87 -134 142 -16 36 -35 59 -63 77 -28 17 -42 35 -47 56 -4 20 -27
48 -67 83 -33 28 -106 93 -161 143 -56 50 -116 99 -134 107 -17 9 -35 26 -38
38 -19 60 37 173 136 276 l71 73 -7 49 c-6 48 -6 49 39 94 40 39 46 50 46 87
0 24 10 70 22 102 l21 59 -33 81 c-18 44 -37 103 -41 132 -5 30 -21 68 -38 92
-16 23 -36 66 -45 97 -14 49 -76 143 -106 162 -6 4 -22 24 -35 46 -23 35 -131
128 -215 185 -49 32 -239 81 -353 89 -72 5 -107 4 -148 -8 -30 -8 -88 -18
-129 -22 -41 -4 -93 -14 -115 -22 -22 -8 -64 -21 -93 -29 -58 -15 -129 -58
-207 -123 -56 -47 -150 -81 -224 -81 l-46 0 -130 133 c-71 73 -156 152 -187
175 -74 55 -178 175 -178 206 0 13 16 43 35 66 19 23 35 48 35 55 0 24 168
172 248 218 43 25 98 61 123 79 24 19 95 69 158 113 l115 79 85 7 c95 8 212
28 311 54 58 15 227 29 410 33 36 1 81 -3 100 -9z"/>
<path fill="#ffffff" stroke="none" d="M24808 36768 c73 -18 94 -28 131 -63
38 -36 44 -48 49 -93 7 -73 -9 -75 -120 -18 -54 28 -103 46 -123 46 -26 0 -35
5 -41 23 -3 12 -15 34 -25 49 -22 30 -25 64 -6 71 23 10 48 7 135 -15z"/>
<path fill="#ffffff" stroke="none" d="M24574 36619 c13 -6 32 -29 42 -51 10
-22 29 -47 44 -56 63 -40 139 -104 145 -122 9 -27 -3 -60 -21 -60 -26 0 -99
48 -139 91 -21 23 -58 50 -82 61 -32 14 -49 29 -59 54 -15 35 -18 76 -7 87 10
11 49 8 77 -4z"/>
<path fill="#ffffff" stroke="none" d="M6920 30161 c30 -11 61 -25 68 -29 7
-5 26 -58 42 -119 29 -107 30 -118 26 -276 -4 -127 -8 -173 -22 -203 -13 -29
-18 -70 -19 -159 -1 -66 -7 -138 -12 -160 -6 -22 -14 -130 -18 -240 -5 -147
-10 -206 -21 -222 -22 -35 -106 -73 -159 -73 -61 0 -105 -20 -162 -73 -27 -24
-73 -59 -103 -76 -30 -18 -89 -56 -130 -85 -68 -48 -80 -61 -126 -144 -27 -51
-71 -114 -97 -140 -41 -41 -49 -56 -57 -107 -5 -32 -14 -73 -20 -91 -16 -48
29 -160 91 -228 25 -28 54 -66 64 -85 9 -19 57 -76 105 -126 48 -51 108 -124
133 -162 38 -60 54 -75 106 -102 42 -21 77 -31 109 -32 58 -1 150 -13 158 -21
3 -4 15 -46 25 -94 11 -48 28 -108 38 -133 10 -25 23 -64 29 -86 5 -22 22 -69
37 -104 24 -56 26 -73 21 -126 -5 -53 -2 -76 24 -155 17 -51 42 -114 55 -140
l24 -46 -15 -196 c-11 -155 -18 -205 -35 -243 -16 -35 -19 -58 -15 -90 8 -52
-10 -75 -59 -75 -51 0 -81 18 -100 60 -34 76 -122 130 -212 130 -65 0 -274 40
-333 64 -32 13 -84 39 -116 58 -54 31 -124 61 -289 123 -121 46 -316 183 -482
339 -40 38 -73 75 -73 82 0 6 -20 39 -45 72 -25 33 -54 86 -65 118 -31 90 -68
162 -104 202 -40 44 -124 235 -137 312 -6 30 -14 84 -19 120 -4 36 -13 78 -19
93 -6 16 -11 54 -11 85 0 31 -7 82 -15 112 -15 56 -21 292 -9 325 4 9 24 25
45 35 21 11 41 25 45 31 4 6 8 53 9 103 1 50 7 116 13 146 32 160 45 206 67
251 19 37 25 64 25 116 0 50 7 84 26 128 66 155 115 281 126 324 22 87 96 205
178 284 108 103 188 169 242 200 26 15 94 72 151 126 57 55 119 107 138 116
18 10 69 42 114 71 44 30 113 65 153 78 39 14 98 41 130 60 31 19 86 42 122
52 36 9 94 25 130 35 80 22 156 19 230 -10z"/>
<path fill="#ffffff" stroke="none" d="M32699 25009 c115 -12 117 -12 264 -85
81 -41 167 -77 190 -81 32 -5 55 -19 98 -60 54 -51 58 -58 104 -196 64 -192
73 -317 25 -332 -29 -9 -55 9 -102 73 -56 76 -71 87 -153 114 -97 32 -157 31
-191 -4 -22 -22 -26 -32 -20 -61 7 -36 54 -87 81 -87 26 0 92 -90 152 -207 86
-167 87 -173 72 -301 -18 -149 -51 -219 -128 -271 -31 -20 -78 -45 -106 -56
-27 -10 -70 -28 -95 -40 -58 -29 -181 -41 -241 -25 -24 7 -86 12 -137 13 -83
0 -97 2 -135 27 -24 15 -69 37 -101 49 -31 11 -84 35 -118 53 -46 24 -81 33
-142 39 -44 5 -115 13 -156 19 -41 6 -119 15 -173 18 -87 6 -101 10 -118 31
-10 13 -19 34 -19 47 0 13 -9 47 -20 76 -16 43 -19 66 -14 119 5 58 3 73 -22
130 -22 51 -28 80 -28 139 -1 41 -5 81 -9 88 -5 7 -30 23 -56 37 -35 17 -52
33 -60 57 -7 18 -24 60 -37 93 -13 33 -24 65 -24 72 0 6 -20 67 -45 134 -44
120 -57 204 -37 237 5 7 40 22 78 33 38 11 86 26 106 32 29 8 52 8 96 -1 82
-17 126 -15 207 8 42 12 128 24 214 30 79 6 162 15 185 21 88 25 443 35 615
18z"/>
<path fill="#ffffff" stroke="none" d="M31850 21629 c0 -24 -4 -38 -10 -34 -5
3 -10 22 -10 41 0 19 5 34 10 34 6 0 10 -18 10 -41z"/>
<path fill="#ffffff" stroke="none" d="M31645 9299 c55 -6 141 -23 190 -39 83
-27 139 -39 270 -59 54 -8 82 -20 131 -58 18 -13 83 -49 145 -80 108 -53 121
-63 249 -190 74 -73 151 -143 170 -154 68 -41 111 -92 159 -194 27 -55 64
-126 83 -157 33 -53 35 -64 42 -172 7 -119 2 -148 -30 -160 -35 -13 -52 7
-108 124 -65 136 -101 176 -150 166 -32 -7 -71 -38 -88 -71 -6 -10 -12 -71
-14 -134 -3 -130 3 -150 65 -237 61 -85 75 -139 68 -252 -5 -77 -12 -103 -33
-141 -45 -78 -61 -114 -74 -168 -9 -41 -22 -61 -60 -97 -26 -24 -72 -57 -101
-71 -30 -15 -74 -42 -99 -60 -57 -41 -100 -55 -166 -55 -71 0 -93 10 -179 80
-88 72 -121 112 -205 245 -171 271 -293 384 -456 425 -82 20 -310 42 -344 33
-55 -14 -168 53 -186 110 -4 12 -17 45 -30 74 -42 92 -29 189 42 305 21 35 60
108 85 163 25 55 62 134 82 177 32 68 60 144 89 248 6 19 26 68 45 109 19 40
38 97 43 126 11 65 27 125 40 145 16 26 175 36 325 19z"/>
<path fill="#ffffff" stroke="none" d="M13128 5934 c12 -8 29 -30 38 -47 16
-32 53 -84 166 -235 35 -46 69 -92 76 -102 12 -17 23 -69 39 -188 6 -42 4 -45
-47 -93 -30 -28 -73 -62 -97 -76 l-44 -26 -177 13 c-189 13 -216 21 -292 81
-19 15 -47 31 -62 34 -14 4 -33 14 -41 23 -21 24 -37 88 -37 148 0 46 6 58 69
150 123 175 157 219 189 239 18 11 55 37 84 58 57 41 99 47 136 21z"/>
<path fill="#ffffff" stroke="none" d="M17150 3275 c30 -8 69 -15 85 -15 78
-1 226 -71 285 -135 35 -38 95 -70 170 -90 36 -9 85 -32 110 -50 25 -18 68
-44 96 -58 58 -29 210 -136 241 -169 24 -25 90 -170 99 -217 10 -50 -23 -125
-117 -263 -49 -73 -89 -136 -89 -142 0 -5 -53 -63 -117 -130 -71 -73 -130
-143 -147 -176 -16 -30 -44 -71 -62 -91 -81 -92 -132 -196 -159 -324 -18 -87
-33 -120 -109 -237 -29 -46 -63 -110 -75 -143 -12 -33 -33 -79 -47 -102 -13
-23 -44 -81 -69 -129 -49 -97 -66 -117 -180 -214 -88 -74 -169 -120 -212 -120
-16 0 -57 -14 -92 -31 -60 -30 -67 -31 -173 -27 l-109 3 -48 50 c-32 34 -58
76 -80 130 -19 44 -57 130 -86 190 -29 61 -60 138 -70 170 -9 33 -24 83 -32
110 -31 104 -83 155 -160 155 -56 0 -84 -27 -117 -111 l-25 -65 19 -75 c10
-41 23 -85 28 -99 6 -14 15 -53 21 -88 8 -48 26 -90 77 -180 94 -165 96 -170
89 -192 -22 -68 -294 -10 -392 84 -23 22 -50 56 -59 75 -8 20 -40 83 -69 141
l-53 105 3 135 c4 154 30 265 83 351 17 27 43 81 57 121 14 40 30 77 34 83 5
5 20 43 35 83 35 98 49 124 116 217 57 79 144 223 206 340 68 130 133 247 142
258 18 21 119 230 132 272 7 22 28 69 46 105 18 36 51 111 73 168 22 57 50
116 61 132 11 16 24 50 29 75 5 26 15 53 22 60 27 26 137 55 211 56 40 1 84 5
98 9 43 14 221 11 280 -5z"/>
<path fill="#000000" stroke="none" d="M19296 37928 c-26 -4 -61 -11 -78 -17
-17 -6 -47 -11 -67 -11 -20 0 -63 -9 -96 -19 -33 -10 -102 -22 -152 -26 -62
-5 -105 -14 -130 -27 -37 -19 -82 -28 -263 -47 -153 -17 -354 -104 -521 -226
-20 -14 -107 -51 -193 -80 -199 -68 -254 -106 -636 -441 -41 -36 -109 -93
-150 -126 -103 -82 -175 -152 -221 -214 -21 -29 -85 -91 -142 -138 -174 -142
-258 -244 -303 -363 -14 -38 -32 -75 -40 -84 -8 -9 -32 -49 -53 -90 -20 -41
-47 -92 -59 -114 -92 -171 -196 -545 -222 -800 -9 -83 -20 -136 -36 -173 -17
-39 -25 -79 -29 -155 -3 -56 -12 -133 -20 -172 -8 -38 -17 -113 -20 -165 -6
-84 -4 -102 15 -155 13 -33 26 -96 30 -140 5 -50 20 -117 43 -180 41 -116 55
-171 126 -475 41 -174 129 -420 207 -574 42 -83 84 -167 93 -186 9 -20 32 -43
55 -56 26 -15 48 -39 68 -76 16 -29 55 -84 88 -123 65 -77 98 -122 193 -264
54 -82 71 -100 129 -135 37 -23 87 -60 110 -82 24 -23 68 -60 99 -82 31 -22
71 -60 89 -84 19 -24 91 -100 162 -170 105 -105 139 -132 195 -158 194 -87
308 -156 358 -215 25 -29 57 -61 71 -70 37 -24 217 -66 253 -59 22 5 42 -1 76
-20 57 -34 101 -50 240 -87 142 -38 407 -65 477 -48 26 6 60 8 75 5 15 -4 44
-1 63 5 19 6 100 13 180 15 339 9 385 12 422 28 25 11 67 16 126 16 63 0 106
6 148 20 43 15 95 22 189 26 164 7 209 17 317 71 68 34 94 53 116 86 23 35 42
48 117 80 50 22 118 59 151 83 34 24 115 66 180 95 66 28 137 66 159 84 42 34
306 166 413 206 74 28 135 76 162 128 10 20 44 61 75 91 58 56 135 161 173
236 12 23 51 68 88 100 36 32 85 86 109 119 24 33 75 90 113 125 55 51 73 74
82 110 7 24 26 64 43 89 17 25 48 93 68 151 79 226 151 395 184 430 37 40 55
86 55 140 0 21 7 57 15 80 8 23 15 59 15 80 0 21 7 57 15 80 22 61 19 101 -10
140 -14 19 -25 36 -25 38 0 2 16 19 36 37 l35 33 6 218 c8 291 5 437 -13 505
-7 31 -21 113 -29 183 -10 90 -25 156 -50 228 -31 91 -35 113 -35 204 0 57 -5
115 -11 131 -6 15 -15 50 -20 76 -8 47 -39 123 -105 264 -19 39 -34 74 -34 78
0 3 -14 26 -30 50 -17 25 -53 93 -80 153 -62 138 -91 186 -182 307 -40 53 -93
125 -116 158 -24 34 -72 91 -106 129 -35 37 -96 115 -137 174 -81 118 -143
174 -248 226 -35 18 -75 47 -90 66 -14 19 -50 45 -80 59 -29 13 -74 41 -100
62 -87 72 -181 129 -248 152 -66 22 -363 165 -413 199 -14 9 -88 43 -165 75
-138 57 -281 95 -361 95 -29 0 -69 14 -131 45 -131 66 -209 76 -543 73 -146
-2 -287 -6 -314 -10z"/>
<path fill="#ffffff" stroke="none" d="M19570 37592 c63 -6 138 -18 165 -27
28 -9 97 -22 155 -30 58 -8 139 -19 180 -25 109 -16 390 -79 420 -95 14 -7 52
-21 85 -30 33 -10 80 -28 105 -41 25 -13 88 -34 140 -48 153 -40 254 -88 325
-154 52 -49 80 -65 179 -105 65 -26 136 -62 158 -79 21 -18 63 -44 91 -58 43
-21 56 -34 77 -77 15 -31 72 -101 143 -177 64 -69 117 -131 117 -137 0 -7 40
-53 89 -103 97 -99 105 -114 151 -273 17 -59 43 -137 59 -173 16 -36 34 -94
40 -130 8 -43 30 -102 68 -175 135 -261 165 -325 193 -416 17 -53 30 -114 30
-135 0 -25 14 -68 39 -119 l39 -80 13 -220 c17 -300 17 -612 1 -700 -7 -38
-22 -107 -33 -153 -10 -45 -19 -98 -19 -118 0 -19 -11 -61 -25 -94 -14 -33
-30 -82 -36 -110 -7 -31 -24 -66 -45 -91 -27 -32 -34 -50 -34 -83 0 -25 -14
-74 -35 -124 -19 -46 -42 -109 -51 -140 -9 -31 -29 -77 -44 -102 -16 -25 -46
-79 -66 -120 -36 -71 -110 -188 -171 -273 -36 -50 -112 -120 -196 -180 -62
-45 -130 -118 -217 -234 -73 -97 -163 -181 -280 -261 -66 -45 -133 -85 -148
-88 -76 -19 -170 -68 -213 -110 -45 -44 -48 -45 -213 -85 -160 -38 -263 -72
-421 -139 -86 -37 -200 -70 -240 -70 -16 0 -82 -14 -145 -31 -148 -39 -298
-50 -595 -45 -214 3 -414 21 -510 46 -22 5 -68 14 -102 20 -34 6 -96 24 -138
41 -46 18 -109 34 -159 39 -156 18 -338 66 -433 113 -48 25 -106 50 -128 55
-22 6 -77 20 -122 32 -85 21 -147 55 -261 142 -69 52 -250 231 -297 293 -16
22 -45 53 -63 69 -19 16 -51 55 -72 85 -64 95 -161 204 -257 290 -90 81 -194
197 -245 276 -15 22 -36 74 -48 115 -42 146 -63 206 -96 280 -18 41 -47 131
-64 200 -18 69 -43 150 -56 181 -12 31 -37 119 -54 195 -17 76 -38 169 -47
207 -59 259 -74 704 -28 857 8 25 17 83 21 130 6 87 33 208 78 364 50 170 57
185 113 233 40 35 56 57 67 92 26 90 63 149 105 171 31 15 42 29 55 65 8 26
33 74 56 107 22 33 40 65 40 70 0 5 17 30 38 56 21 26 47 67 58 92 10 24 37
65 58 90 22 25 47 63 57 85 10 22 43 65 74 95 31 30 70 78 86 105 38 67 82
107 148 134 30 12 78 39 105 60 28 21 78 53 111 72 33 18 95 57 137 85 47 31
135 74 220 109 79 31 169 72 201 91 32 20 81 46 110 58 88 37 182 92 305 181
63 45 140 68 253 74 91 6 114 11 160 35 30 16 77 32 104 36 28 4 77 12 110 18
173 33 251 35 475 14z"/>
<path fill="#000000" stroke="none" d="M21125 36014 c-55 -25 -132 -61 -171
-79 -40 -18 -107 -57 -150 -87 -44 -30 -99 -64 -124 -76 -25 -12 -85 -54 -134
-94 -86 -70 -92 -78 -148 -188 -32 -63 -65 -137 -72 -165 -8 -27 -22 -68 -31
-90 -15 -34 -17 -74 -16 -280 l1 -240 30 -58 c21 -40 30 -71 30 -105 0 -44 4
-52 49 -96 35 -34 52 -61 60 -93 17 -66 82 -154 143 -194 29 -18 58 -35 63
-38 6 -2 62 -29 125 -61 135 -67 164 -77 251 -89 35 -5 107 -18 159 -30 99
-23 118 -24 315 -19 110 3 126 6 190 35 39 17 96 41 127 53 38 15 81 44 130
89 40 36 106 88 147 115 155 104 229 207 241 340 4 39 13 85 20 101 7 17 14
64 15 105 1 42 11 111 24 159 24 88 24 120 3 306 -9 76 -30 146 -58 190 -7 11
-20 43 -30 70 -9 28 -24 61 -33 75 -10 14 -30 51 -45 82 -43 90 -203 222 -320
263 -23 8 -63 26 -90 40 -27 14 -55 25 -61 25 -7 0 -32 9 -56 19 -34 14 -81
21 -199 26 -94 4 -168 12 -189 21 -54 23 -90 17 -196 -32z"/>
<path fill="#ffffff" stroke="none" d="M21992 35683 c34 -36 78 -109 78 -127
0 -34 -24 -24 -85 35 -50 48 -65 69 -65 91 0 23 4 28 23 28 13 0 35 -12 49
-27z"/>
<path fill="#ffffff" stroke="none" d="M22039 35115 c55 -50 67 -84 53 -147
-7 -27 -12 -72 -12 -99 0 -39 -5 -55 -23 -73 -22 -22 -35 -24 -169 -31 -80 -4
-155 -4 -165 -1 -32 10 -43 51 -43 163 l0 106 37 34 c42 40 70 53 121 54 20 0
53 7 72 14 59 23 86 18 129 -20z"/>
<path fill="#000000" stroke="none" d="M12227 34048 c-44 -19 -53 -20 -115 -9
-160 30 -535 10 -726 -38 -62 -16 -134 -40 -161 -54 -32 -16 -77 -27 -125 -32
-91 -9 -202 -47 -252 -87 -62 -49 -240 -144 -340 -182 -100 -37 -224 -103
-343 -180 -60 -40 -136 -88 -168 -107 -32 -19 -95 -66 -140 -104 -45 -39 -112
-94 -149 -123 -97 -77 -266 -258 -318 -342 -25 -40 -84 -113 -131 -164 -121
-129 -159 -184 -225 -326 -32 -69 -73 -147 -91 -175 -18 -27 -33 -53 -33 -57
0 -9 -134 -305 -173 -383 -14 -27 -32 -84 -40 -125 -21 -96 -38 -336 -30 -420
4 -50 1 -75 -12 -105 -35 -80 -61 -313 -44 -392 9 -41 9 -62 0 -93 -12 -40
-11 -53 20 -216 5 -28 7 -86 3 -130 -5 -65 -2 -91 15 -144 12 -36 21 -92 21
-126 0 -44 7 -77 25 -117 14 -31 30 -80 35 -109 9 -60 41 -146 95 -263 47 -99
83 -197 144 -390 57 -178 63 -191 135 -274 31 -36 56 -70 56 -76 0 -7 15 -32
33 -56 18 -24 39 -60 47 -79 7 -19 26 -53 40 -75 15 -22 34 -54 43 -71 21 -40
128 -144 173 -167 19 -10 63 -46 97 -81 54 -54 72 -65 134 -85 59 -18 84 -33
148 -90 44 -39 93 -74 117 -82 22 -7 59 -27 82 -44 57 -43 201 -135 210 -135
4 0 33 -17 64 -38 31 -21 93 -58 137 -82 44 -23 114 -64 155 -90 140 -87 175
-106 265 -142 50 -20 123 -43 163 -53 72 -17 85 -17 259 1 41 4 87 1 135 -9
120 -26 166 -30 328 -31 153 -1 156 -1 245 32 74 28 100 33 145 29 63 -5 175
15 239 44 24 10 60 19 79 19 52 0 145 19 237 48 55 17 116 28 195 32 119 8
185 25 255 66 23 13 66 26 100 30 33 4 94 19 135 34 41 15 97 33 123 39 27 6
85 33 130 60 45 27 126 69 180 92 70 30 110 54 141 85 28 29 62 50 97 63 72
25 158 80 211 137 24 25 59 54 79 64 41 21 81 68 171 200 111 163 156 222 243
320 226 252 336 424 395 612 29 91 34 100 84 143 54 46 76 85 76 135 0 14 12
60 26 101 20 57 29 106 36 214 5 77 9 162 9 189 -1 27 6 71 14 99 12 40 13 68
6 131 -5 45 -9 140 -9 212 -1 154 -17 351 -37 444 -30 138 -37 205 -32 272 4
52 1 85 -12 131 -11 34 -22 75 -25 91 -4 16 -18 45 -32 65 -13 19 -24 42 -24
51 -1 8 -7 33 -15 55 -9 22 -26 94 -40 159 -27 127 -53 194 -114 291 -78 124
-110 182 -141 259 -28 66 -49 97 -128 183 -53 57 -116 134 -140 171 -25 37
-77 105 -116 150 -39 46 -87 105 -106 132 -48 66 -308 347 -328 355 -10 4 -47
11 -84 15 -64 7 -72 11 -181 93 -63 47 -159 109 -213 137 -53 28 -136 76 -182
106 -79 51 -340 184 -363 184 -5 0 -49 15 -97 34 -115 45 -319 102 -412 116
-173 25 -197 29 -230 39 -52 16 -99 13 -153 -11z"/>
<path fill="#ffffff" stroke="none" d="M12350 33709 c107 -6 231 -14 275 -19
44 -4 112 -11 150 -15 43 -4 155 -34 287 -76 216 -69 355 -131 509 -228 32
-20 92 -56 134 -81 87 -52 304 -191 385 -247 79 -55 222 -195 291 -286 32 -43
59 -80 59 -83 0 -5 79 -163 165 -329 32 -60 66 -134 76 -163 10 -29 29 -78 43
-110 78 -178 172 -417 219 -557 30 -88 71 -203 90 -255 68 -179 89 -273 92
-405 2 -77 9 -136 19 -164 12 -34 16 -85 16 -225 0 -156 -3 -190 -20 -239 -11
-31 -20 -75 -20 -97 0 -27 -12 -64 -37 -111 l-37 -71 17 -48 c23 -65 22 -74
-21 -197 -22 -59 -45 -133 -52 -163 -19 -81 -51 -139 -163 -295 -56 -77 -112
-162 -125 -190 -14 -27 -37 -68 -52 -90 -15 -22 -39 -62 -53 -90 -18 -35 -94
-118 -259 -281 -332 -329 -412 -390 -798 -606 -91 -51 -356 -185 -380 -193
-14 -4 -52 -21 -85 -38 -52 -26 -75 -31 -175 -38 -113 -7 -201 -24 -270 -52
-19 -8 -69 -17 -110 -21 -41 -3 -106 -13 -145 -20 -170 -35 -215 -39 -324 -32
-60 4 -124 11 -142 16 -19 6 -109 6 -223 2 -365 -16 -454 -8 -616 51 -30 11
-92 32 -137 48 -45 15 -103 39 -130 52 -26 13 -73 32 -103 42 -55 18 -96 40
-265 144 -125 77 -370 250 -430 304 -102 91 -219 180 -261 197 -60 26 -267
239 -307 315 -8 17 -38 56 -66 88 -28 32 -51 66 -51 77 0 10 -16 42 -36 71
-20 30 -43 77 -51 104 -8 28 -30 70 -48 95 -18 25 -36 56 -40 70 -4 14 -24 59
-45 100 -20 41 -54 123 -74 181 -36 106 -36 106 -36 280 0 96 -7 302 -15 458
-9 156 -13 299 -9 317 3 18 1 72 -5 121 -11 92 -4 268 21 493 7 63 12 171 10
239 -2 109 1 136 23 215 37 128 132 318 193 386 27 30 66 78 88 106 102 133
157 194 203 228 27 20 79 72 114 114 36 42 177 190 313 328 244 245 270 267
447 378 16 9 56 41 90 70 34 29 96 67 137 86 41 19 93 48 114 64 87 67 150 98
216 107 109 14 201 39 275 75 38 18 126 48 195 65 112 28 141 32 282 33 86 0
159 4 163 8 7 7 208 2 505 -13z"/>
<path fill="#000000" stroke="none" d="M13495 32374 c-55 -25 -132 -61 -171
-79 -40 -18 -107 -57 -150 -87 -44 -30 -99 -64 -124 -76 -25 -12 -85 -54 -134
-94 -86 -70 -92 -78 -148 -188 -32 -63 -65 -137 -72 -165 -8 -27 -22 -68 -31
-90 -15 -34 -17 -74 -16 -280 l1 -240 30 -58 c21 -40 30 -71 30 -105 0 -44 4
-52 49 -96 35 -34 52 -61 60 -93 17 -66 82 -154 143 -194 29 -18 58 -35 63
-38 6 -2 62 -29 125 -61 135 -67 164 -77 251 -89 35 -5 107 -18 159 -30 99
-23 118 -24 315 -19 110 3 126 6 190 35 39 17 96 41 127 53 38 15 81 44 130
89 40 36 106 88 147 115 155 103 229 207 241 340 4 39 14 91 24 115 11 30 14
59 10 91 -4 33 0 65 16 115 28 93 36 190 21 278 -27 155 -34 184 -58 237 -14
30 -34 86 -44 124 -35 124 -55 151 -192 266 -71 60 -186 129 -213 130 -7 0
-38 14 -69 30 -31 17 -63 30 -70 30 -7 0 -32 9 -56 19 -34 14 -81 21 -199 26
-94 4 -168 12 -189 21 -54 23 -90 17 -196 -32z"/>
<path fill="#ffffff" stroke="none" d="M14362 32043 c34 -36 78 -109 78 -127
0 -34 -24 -24 -85 35 -50 48 -65 69 -65 91 0 23 4 28 23 28 13 0 35 -12 49
-27z"/>
<path fill="#ffffff" stroke="none" d="M14409 31475 c55 -50 67 -83 52 -149
-8 -36 -21 -62 -42 -82 -17 -16 -39 -45 -49 -65 -11 -20 -26 -39 -35 -43 -26
-10 -210 -20 -237 -13 -37 10 -48 47 -48 164 l0 106 37 34 c42 40 70 53 121
54 20 0 53 7 72 14 59 23 86 18 129 -20z"/>
<path fill="#000000" stroke="none" d="M17380 30931 c-49 -16 -147 -31 -198
-31 -55 0 -253 -66 -302 -100 -75 -52 -204 -106 -373 -156 -186 -54 -351 -150
-512 -298 -55 -51 -121 -104 -146 -119 -77 -44 -156 -114 -203 -180 -49 -69
-59 -90 -87 -187 -10 -36 -38 -104 -62 -151 -68 -130 -74 -172 -42 -312 17
-75 25 -137 23 -180 -3 -60 -1 -68 35 -119 54 -79 51 -94 -38 -189 -41 -44
-84 -97 -94 -117 -23 -43 -106 -126 -173 -170 -65 -44 -97 -79 -141 -153 -51
-86 -77 -166 -77 -239 0 -33 -7 -77 -16 -98 -27 -65 -35 -178 -16 -255 13 -56
14 -77 4 -125 -16 -79 -15 -196 3 -265 14 -55 67 -150 150 -272 23 -34 52 -92
65 -129 17 -48 34 -76 58 -94 18 -15 54 -45 80 -68 26 -22 63 -47 82 -54 19
-8 51 -29 70 -46 20 -18 54 -39 75 -47 22 -9 70 -27 107 -41 36 -14 75 -26 86
-26 11 0 46 -12 78 -27 49 -22 77 -27 164 -31 95 -4 112 -2 174 22 39 15 95
46 125 69 52 39 62 42 137 48 90 7 150 30 219 83 85 64 152 71 179 17 9 -16
23 -62 32 -102 9 -41 30 -108 46 -149 16 -41 34 -97 38 -125 30 -176 42 -223
69 -282 18 -38 31 -82 31 -104 0 -54 32 -142 70 -189 26 -32 34 -54 41 -112
15 -121 37 -188 78 -243 21 -28 48 -69 59 -90 11 -22 59 -86 106 -141 l85
-102 88 -32 c133 -48 181 -56 245 -41 29 7 112 19 183 26 115 10 139 16 205
48 242 115 427 187 484 187 50 1 62 8 272 163 36 27 87 55 114 63 27 8 73 26
102 39 36 17 71 25 108 25 104 0 263 58 388 141 44 30 100 66 124 81 142 90
204 141 213 176 3 15 23 51 43 80 l36 54 -3 136 c-2 102 -7 150 -21 187 -33
89 -38 109 -54 197 -17 91 -53 186 -93 249 -13 20 -37 71 -54 114 -16 43 -39
91 -50 107 -12 16 -50 85 -85 154 -92 182 -205 363 -309 497 -25 32 -45 65
-45 73 0 8 17 33 38 57 21 23 45 59 54 79 14 30 25 39 60 49 85 22 214 82 258
118 25 21 65 45 90 55 60 24 113 64 154 117 19 24 54 63 78 85 30 30 50 61 66
105 12 35 40 86 62 114 54 70 81 135 91 221 5 40 16 88 24 108 19 44 20 37
-15 80 -16 21 -36 63 -45 94 -9 31 -23 67 -30 78 -16 25 -51 117 -69 184 -28
100 -102 233 -171 310 -37 41 -81 93 -97 115 -16 22 -67 75 -114 117 -65 58
-111 90 -192 130 -59 28 -123 62 -142 75 -19 12 -57 27 -85 33 -27 7 -71 19
-98 27 -35 11 -68 13 -130 8 -45 -3 -113 -8 -152 -9 -38 -2 -101 -8 -140 -15
-38 -6 -87 -15 -108 -18 -50 -8 -240 15 -286 34 -48 20 -142 36 -221 37 -76 1
-86 6 -99 49 -13 43 -73 179 -94 210 -51 78 -381 277 -461 277 -22 1 -66 9
-96 20 -60 21 -73 22 -110 11z"/>
<path fill="#ffffff" stroke="none" d="M17634 30544 c20 -19 20 -19 0 -80 -28
-83 -56 -102 -94 -64 -15 15 -20 33 -20 74 0 64 16 86 65 86 18 0 41 -7 49
-16z"/>
<path fill="#ffffff" stroke="none" d="M17348 30398 c15 -15 16 -72 2 -99 -6
-11 -21 -19 -35 -19 -45 0 -59 59 -24 104 22 28 39 32 57 14z"/>
<path fill="#ffffff" stroke="none" d="M17061 30151 c29 -29 31 -56 5 -73 -34
-23 -96 11 -96 51 0 23 25 51 46 51 9 0 29 -13 45 -29z"/>
<path fill="#ffffff" stroke="none" d="M18945 30051 c145 -29 192 -44 327
-102 158 -68 243 -112 333 -175 33 -23 81 -50 105 -59 50 -19 126 -94 168
-165 14 -25 43 -72 64 -104 l38 -59 0 -127 c0 -123 -19 -296 -42 -388 -8 -32
-30 -66 -81 -124 -72 -81 -114 -110 -180 -122 -56 -10 -79 -37 -71 -84 8 -51
-6 -64 -108 -97 -46 -15 -103 -40 -128 -55 -25 -16 -65 -36 -89 -45 -52 -18
-163 -20 -225 -3 -40 10 -51 9 -93 -9 -104 -45 -289 -75 -473 -77 -58 -1 -125
-5 -150 -10 -58 -11 -309 -99 -378 -133 -38 -19 -79 -28 -140 -34 -99 -8 -245
-54 -295 -91 -17 -14 -78 -48 -134 -77 -59 -30 -115 -67 -135 -89 -18 -20 -85
-89 -148 -153 -63 -65 -155 -161 -205 -214 -90 -97 -129 -127 -280 -217 -47
-28 -111 -78 -155 -123 -70 -70 -79 -76 -131 -84 -31 -5 -112 -32 -181 -59
-196 -78 -315 -80 -458 -7 -45 23 -150 124 -150 145 0 6 -19 32 -43 58 -24 26
-56 70 -71 97 -16 28 -46 78 -68 112 -124 194 -156 450 -92 753 21 102 97 255
160 323 30 32 72 84 93 115 61 88 189 209 241 227 24 8 57 26 74 39 60 45 118
60 209 53 46 -4 110 -2 147 5 36 6 103 12 150 13 47 2 114 10 150 18 42 10
115 16 205 16 98 0 152 4 180 15 106 39 247 105 287 134 86 64 134 92 187 107
69 21 120 53 154 99 16 20 57 55 92 79 34 23 81 65 104 94 22 28 59 66 82 85
22 18 65 64 94 103 63 83 166 184 252 247 48 36 95 57 200 92 81 27 157 46
183 46 25 0 68 7 95 15 59 17 238 15 330 -4z"/>
<path fill="#ffffff" stroke="none" d="M18923 27970 c76 -51 234 -212 291
-298 16 -23 55 -70 86 -105 31 -34 67 -82 80 -107 12 -25 42 -70 65 -101 53
-67 121 -193 146 -270 10 -30 34 -81 52 -112 19 -31 37 -75 41 -99 4 -23 18
-64 32 -92 43 -85 94 -232 94 -270 0 -19 7 -54 16 -76 24 -59 14 -131 -30
-218 -65 -129 -126 -155 -451 -194 -152 -18 -294 -10 -349 21 -16 9 -54 30
-85 46 -54 29 -57 33 -78 97 -11 37 -30 80 -42 97 -12 16 -21 32 -21 36 0 4
-13 33 -28 64 -16 31 -53 128 -82 215 -43 127 -62 169 -94 209 -23 27 -49 66
-60 86 -10 20 -33 54 -50 76 -18 22 -40 63 -50 90 -10 28 -42 82 -71 120 -29
39 -64 93 -78 120 -13 28 -34 68 -46 90 -25 47 -26 68 -5 85 41 34 38 46 -47
226 -10 22 -19 62 -19 88 0 41 5 53 34 82 20 20 44 34 59 34 13 0 44 7 68 16
26 9 57 13 76 9 32 -6 145 19 233 50 42 16 136 31 207 34 22 1 52 -13 106 -49z"/>
<path fill="#ffffff" stroke="none" d="M17811 27708 c30 -12 61 -28 70 -35 9
-8 36 -58 59 -111 98 -225 147 -331 182 -394 21 -37 47 -89 57 -116 21 -52 78
-160 123 -232 16 -25 38 -74 49 -110 11 -35 32 -85 47 -110 15 -25 31 -54 37
-64 21 -41 36 -31 34 23 -2 28 0 54 4 57 9 10 35 -14 43 -39 16 -54 79 -175
106 -203 41 -43 35 -71 -22 -104 -53 -31 -59 -50 -32 -99 18 -31 19 -42 10
-77 -10 -36 -8 -46 15 -95 15 -30 36 -70 47 -89 14 -25 20 -53 20 -97 0 -54
-4 -67 -27 -93 -18 -20 -44 -35 -73 -41 -56 -13 -78 -32 -86 -78 -11 -58 -20
-68 -91 -92 -38 -12 -97 -35 -132 -50 -35 -16 -78 -29 -96 -29 -17 0 -54 -7
-81 -15 -66 -20 -94 -19 -151 6 -26 11 -84 24 -129 28 -63 6 -89 14 -120 34
-21 15 -50 27 -65 27 -31 0 -50 21 -73 80 -10 25 -42 88 -71 140 -29 52 -58
113 -65 135 -7 22 -28 73 -46 114 -19 40 -40 95 -48 121 -8 26 -28 78 -44 116
-17 38 -42 114 -57 169 -15 55 -37 141 -50 190 -13 50 -33 138 -45 198 -22
110 -55 219 -84 275 -25 48 -20 120 13 194 22 50 44 78 101 128 40 36 100 90
134 121 33 31 87 70 119 87 31 18 83 46 114 64 75 42 191 87 224 88 15 0 51
-10 80 -22z"/>
<path fill="#000000" stroke="none" d="M24547 21222 c-40 -13 -57 -14 -110 -3
-45 9 -81 9 -132 2 -38 -6 -115 -11 -170 -11 -112 0 -143 -12 -188 -72 -38
-51 -51 -102 -41 -167 15 -99 8 -210 -15 -276 -28 -76 -44 -161 -46 -250 -3
-94 -21 -223 -36 -260 -7 -17 -15 -103 -19 -201 l-6 -170 -46 -85 c-26 -46
-67 -110 -92 -143 -27 -34 -53 -81 -62 -113 -13 -45 -24 -61 -67 -94 -29 -23
-66 -62 -84 -88 -17 -26 -60 -74 -95 -107 -35 -34 -75 -82 -90 -107 -18 -32
-34 -47 -48 -47 -35 0 -24 40 25 90 68 69 74 150 11 150 -25 0 -253 -105 -280
-128 -24 -22 -57 -97 -111 -250 -49 -140 -69 -173 -161 -262 -36 -35 -70 -72
-75 -82 -26 -49 33 -87 103 -66 21 6 53 27 71 47 102 112 225 231 239 231 9 0
38 -18 63 -40 25 -22 51 -40 56 -40 14 0 250 228 387 374 61 66 120 124 129
129 11 7 35 4 72 -8 81 -26 304 -23 386 5 32 11 71 20 86 20 15 0 49 4 76 10
26 5 114 14 194 19 l145 11 94 -30 c73 -24 103 -40 143 -76 28 -25 65 -53 81
-61 17 -9 53 -35 80 -59 28 -24 75 -53 105 -66 31 -12 91 -46 133 -74 125 -83
188 -104 316 -104 59 0 136 -6 172 -12 36 -7 92 -13 126 -13 51 0 67 5 104 30
78 54 134 87 185 107 37 14 79 48 160 127 84 82 126 115 177 139 74 35 96 60
154 172 36 69 39 83 44 180 3 63 13 128 25 163 18 57 19 62 2 142 -9 45 -17
92 -17 103 0 24 -58 215 -96 315 -15 40 -47 101 -71 135 -24 35 -54 85 -67
110 -13 26 -47 78 -75 117 -28 38 -51 75 -51 81 0 44 -182 206 -270 240 -25
10 -64 30 -87 46 -23 15 -44 28 -48 28 -3 0 -44 18 -89 40 -46 22 -106 45
-132 51 -56 13 -200 64 -289 103 -34 14 -80 26 -105 26 -25 0 -70 7 -100 16
-82 24 -604 28 -673 6z"/>
<path fill="#ffffff" stroke="none" d="M24915 20939 c33 -5 134 -13 225 -18
91 -5 192 -16 225 -24 101 -27 208 -47 247 -47 25 0 77 -20 165 -64 70 -35
164 -81 208 -102 62 -29 99 -55 163 -118 92 -89 133 -156 163 -266 9 -36 33
-109 53 -163 20 -54 36 -107 36 -119 0 -11 13 -59 29 -107 21 -63 31 -115 36
-193 6 -106 6 -108 -19 -133 -25 -25 -50 -31 -81 -19 -9 4 -45 67 -81 140 -97
198 -189 311 -274 334 -51 14 -97 5 -110 -21 -9 -16 -3 -27 38 -66 62 -61 95
-120 116 -207 9 -37 28 -91 43 -119 24 -49 36 -99 49 -218 5 -45 0 -77 -26
-172 -31 -113 -34 -119 -82 -162 -49 -44 -70 -53 -176 -74 -118 -24 -242 -1
-358 66 -38 22 -89 52 -114 66 -25 14 -88 66 -140 115 -65 60 -108 93 -133
100 -20 6 -49 20 -63 31 -15 12 -38 21 -53 21 -14 0 -62 12 -106 26 -69 22
-105 26 -255 31 -226 8 -231 8 -325 -5 -149 -21 -305 -34 -327 -28 -17 4 -32
26 -56 78 -32 73 -32 73 -18 138 15 73 50 173 93 270 17 36 38 90 48 120 10
30 28 76 41 102 31 61 30 73 -7 116 -27 31 -30 39 -22 71 4 20 7 91 5 157 -3
108 -1 130 22 203 14 45 26 99 26 119 0 55 18 110 38 114 9 3 29 0 44 -5 19
-6 52 -4 105 8 45 9 162 20 273 24 262 11 266 11 335 0z"/>
</g>
</svg>
