<?xml version="1.0" encoding="UTF-8" standalone="no"?>
<!-- Created with Inkscape (http://www.inkscape.org/) -->

<svg
   xmlns:dc="http://purl.org/dc/elements/1.1/"
   xmlns:cc="http://creativecommons.org/ns#"
   xmlns:rdf="http://www.w3.org/1999/02/22-rdf-syntax-ns#"
   xmlns:svg="http://www.w3.org/2000/svg"
   xmlns="http://www.w3.org/2000/svg"
   xmlns:sodipodi="http://sodipodi.sourceforge.net/DTD/sodipodi-0.dtd"
   xmlns:inkscape="http://www.inkscape.org/namespaces/inkscape"
   width="783.4743"
   height="787.70679"
   id="svg10382"
   version="1.1"
   inkscape:version="0.48.3.1 r9886"
   sodipodi:docname="drawing.svg">
  <defs
     id="defs10384" />
  <sodipodi:namedview
     id="base"
     pagecolor="#ffffff"
     bordercolor="#666666"
     borderopacity="1.0"
     inkscape:pageopacity="0.0"
     inkscape:pageshadow="2"
     inkscape:zoom="1"
     inkscape:cx="404.73715"
     inkscape:cy="208.85339"
     inkscape:document-units="px"
     inkscape:current-layer="layer1"
     showgrid="false"
     fit-margin-top="0"
     fit-margin-left="0"
     fit-margin-right="0"
     fit-margin-bottom="0"
     inkscape:window-width="1871"
     inkscape:window-height="1056"
     inkscape:window-x="49"
     inkscape:window-y="24"
     inkscape:window-maximized="1" />
  <metadata
     id="metadata10387">
    <rdf:RDF>
      <cc:Work
         rdf:about="">
        <dc:format>image/svg+xml</dc:format>
        <dc:type
           rdf:resource="http://purl.org/dc/dcmitype/StillImage" />
        <dc:title></dc:title>
      </cc:Work>
    </rdf:RDF>
  </metadata>
  <g
     inkscape:label="Layer 1"
     inkscape:groupmode="layer"
     id="layer1"
     transform="translate(29.737152,6.4912109)">
    <rect
       style="fill:#f2f2f2;fill-opacity:1;stroke:none"
       id="rect8039"
       width="783.4743"
       height="787.70679"
       x="-29.737152"
       y="-6.4912109"
       ry="3.6034393"
       inkscape:export-filename="/tmp/learngolangandprosper.png"
       inkscape:export-xdpi="90"
       inkscape:export-ydpi="90" />
    <path
       sodipodi:nodetypes="cccccccccc"
       inkscape:connector-curvature="0"
       style="fill:#ffffff;fill-opacity:1;stroke:#1a1a1a;stroke-width:2.2143681;stroke-miterlimit:4;stroke-dasharray:none"
       id="path8041"
       d="m 474.23364,194.12252 c 0.9021,2.6738 4.2181,2.213 5.1107,0.2634 5.4463,-6.5463 24.6967,-15.6216 29.4091,-14.1793 6.5859,2.1831 -4.5673,22.2009 -12.128,37.0884 l -0.1081,0.2438 c -0.072,0.093 -0.118,0.2283 -0.1951,0.3456 -3.8032,7.2478 -11.983,25.1645 -23.6566,21.4369 -0.1811,-0.067 -0.3554,-0.1118 -0.5202,-0.1556 -1.5312,-0.7311 -4.1491,-0.6323 -4.4422,1.8572 -24.903,-5.4064 -16.5034,-42.5405 6.5308,-46.9004 z" />
    <path
       style="fill:none;stroke:#1a1a1a;stroke-width:2.2143681;stroke-linecap:round;stroke-linejoin:round;stroke-miterlimit:4;stroke-opacity:1;stroke-dasharray:none"
       d="m 476.66534,220.06422 c 5.6471,-8.0741 9.8833,-24.0274 22.9238,-25.9403"
       id="path8043"
       inkscape:connector-curvature="0"
       sodipodi:nodetypes="cc" />
    <path
       id="path8045"
       d="m 449.93534,434.24082 c 8.9483,5.5367 25.3043,22.2779 11.8808,30.3958 -12.8979,11.8093 -20.1167,-12.9621 -31.4374,-16.3944 4.8754,-6.621 11.0549,-12.6581 19.5566,-14.0014 z"
       clip-rule="evenodd"
       inkscape:connector-curvature="0"
       style="fill:#ffffff;fill-rule:evenodd;stroke:#000000;stroke-width:2.2143681;stroke-linecap:round" />
    <path
       id="path8047"
       d="m 461.81614,464.63592 c -1.99,-3.9571 -2.6579,-8.5755 -5.9802,-11.765"
       clip-rule="evenodd"
       inkscape:connector-curvature="0"
       style="fill:#ffffff;stroke:#000000;stroke-width:2.2143681;stroke-linecap:round" />
    <path
       id="path8049"
       d="m 290.07124,453.16032 c -10.5027,1.6254 -16.4144,11.1006 -25.17,15.9124 -8.2507,4.9196 -11.407,-1.5751 -12.1502,-2.8934 -1.2931,-0.5897 -1.1847,0.5492 -3.1805,-1.4607 -7.6485,-12.0713 7.9695,-20.8948 16.102,-26.8913 11.3274,-2.2897 18.4258,7.5303 24.3987,15.333 z"
       clip-rule="evenodd"
       inkscape:connector-curvature="0"
       style="fill:#ffffff;fill-rule:evenodd;stroke:#000000;stroke-width:2.2143681;stroke-linecap:round" />
    <path
       id="path8051"
       d="m 252.75184,466.17852 c 0.4,-4.6007 4.0478,-7.6817 5.7854,-11.5715"
       clip-rule="evenodd"
       inkscape:connector-curvature="0"
       style="fill:#ffffff;stroke:#000000;stroke-width:2.2143681;stroke-linecap:round" />
    <path
       id="path8053"
       d="m 499.62134,338.39552 c -0.564,11.6262 -12.1783,6.2468 -17.4388,2.6123 -4.9935,-3.4508 -6.4535,-0.5825 -6.892,-7.3923 -0.2871,-4.476 -0.803,-8.9521 -0.5491,-13.4457 7.551,-0.6842 15.7641,1.1138 21.9547,5.6112 3.188,2.3169 9.1675,9.7122 2.9252,12.6145"
       clip-rule="evenodd"
       inkscape:connector-curvature="0"
       style="fill:#ffffff;fill-rule:evenodd;stroke:#000000;stroke-width:2.2143681;stroke-linecap:round" />
    <path
       id="path8055"
       d="m 499.62134,338.39552 c -1.6902,-0.6289 -3.4817,-1.0754 -4.6287,-2.6041"
       clip-rule="evenodd"
       inkscape:connector-curvature="0"
       style="fill:#ffffff;fill-rule:evenodd;stroke:#000000;stroke-width:2.2143681;stroke-linecap:round" />
    <path
       d="m 238.12244,195.59882 c -0.9022,2.6737 -4.2181,2.2129 -5.1107,0.2634 -5.4464,-6.5463 -24.6968,-15.6216 -29.4091,-14.1794 -6.5859,2.183 4.5672,22.201 12.128,37.0883 l 0.1081,0.2439 c 0.072,0.093 0.118,0.2284 0.195,0.3456 3.8033,7.2478 11.983,25.1646 23.6566,21.437 0.1812,-0.067 0.3555,-0.1118 0.5202,-0.1557 1.5314,-0.731 4.1492,-0.6322 4.4423,1.8572 24.903,-5.4065 16.5033,-42.5404 -6.5308,-46.9003 z"
       id="path8059"
       style="fill:#ffffff;fill-opacity:1;stroke:#1a1a1a;stroke-width:2.2143681;stroke-miterlimit:4;stroke-dasharray:none"
       inkscape:connector-curvature="0"
       sodipodi:nodetypes="cccccccccc" />
    <path
       style="fill:#ffffff;fill-opacity:1;fill-rule:evenodd;stroke:#000000;stroke-width:2.2143681;stroke-linecap:round"
       inkscape:connector-curvature="0"
       clip-rule="evenodd"
       d="m 354.23844,79.04212 c 44.5568,0 86.3258,6.3722 108.0996,49.1803 19.5441,47.9825 12.5938,99.7234 15.5743,150.4339 2.5598,43.5434 8.2353,93.8485 -11.9649,134.1995 -21.2505,42.4524 -74.3511,53.1316 -118.0996,51.5675 -34.3634,-1.2297 -75.8746,-12.4403 -95.2687,-43.8364 -22.7534,-36.8323 -11.9813,-91.5995 -10.3286,-132.5829 1.9575,-48.5472 -13.1496,-97.2419 2.799,-144.7467 16.545,-49.2793 61.1659,-60.4161 109.1889,-64.2152"
       id="path8061" />
    <path
       id="path8066"
       d="m 365.05714,220.05012 c 7.9998,46.504 84.0147,34.2083 73.0963,-12.6934 -9.7904,-42.0583 -75.755,-30.4166 -73.0963,12.6934"
       clip-rule="evenodd"
       inkscape:connector-curvature="0"
       style="fill:#ffffff;fill-rule:evenodd;stroke:#000000;stroke-width:2.14653444;stroke-linecap:round" />
    <path
       id="path8072"
       d="m 274.21934,227.57162 c 10.3684,40.4861 75.1881,30.1205 72.745,-10.491 -2.9275,-48.6386 -82.658,-39.2533 -72.745,10.491"
       clip-rule="evenodd"
       inkscape:connector-curvature="0"
       style="fill:#ffffff;fill-rule:evenodd;stroke:#000000;stroke-width:2.08253932;stroke-linecap:round" />
    <path
       id="path8078"
       d="m 371.27584,278.80622 c 0.034,6.0459 1.3736,12.8336 0.2303,19.2656 -1.5435,2.9172 -4.5712,3.2257 -7.1812,4.4045 -3.6094,-0.5662 -6.6446,-2.9363 -8.092,-6.3125 -0.9264,-7.3413 0.3454,-14.4495 0.5794,-21.7938 l 14.4635,4.4362 z"
       clip-rule="evenodd"
       inkscape:connector-curvature="0"
       style="fill:#ffffff;fill-rule:evenodd;stroke:#000000;stroke-width:2.2143681;stroke-linecap:round" />
    <g
       transform="matrix(0.73812268,0,0,0.73812268,227.64153,150.54842)"
       id="g8080">
      <ellipse
         id="ellipse8082"
         ry="16.062"
         rx="14.829"
         cy="95.403999"
         cx="107.324"
         clip-rule="evenodd"
         sodipodi:cx="107.324"
         sodipodi:cy="95.403999"
         sodipodi:rx="14.829"
         sodipodi:ry="16.062"
         style="fill-rule:evenodd"
         d="m 122.153,95.403999 c 0,8.870801 -6.63917,16.062001 -14.829,16.062001 -8.189833,0 -14.829003,-7.1912 -14.829003,-16.062001 0,-8.870797 6.63917,-16.062 14.829003,-16.062 8.18983,0 14.829,7.191203 14.829,16.062 z" />
      <ellipse
         id="ellipse8084"
         ry="4.0819998"
         rx="3.4960001"
         cy="99.028999"
         cx="114.069"
         clip-rule="evenodd"
         sodipodi:cx="114.069"
         sodipodi:cy="99.028999"
         sodipodi:rx="3.4960001"
         sodipodi:ry="4.0819998"
         style="fill:#ffffff;fill-rule:evenodd"
         d="m 117.565,99.028999 c 0,2.254431 -1.56521,4.082001 -3.496,4.082001 -1.93079,0 -3.496,-1.82757 -3.496,-4.082001 0,-2.254426 1.56521,-4.081999 3.496,-4.081999 1.93079,0 3.496,1.827573 3.496,4.081999 z" />
    </g>
    <g
       transform="matrix(0.73812268,0,0,0.73812268,227.64153,150.54842)"
       id="g8086">
      <ellipse
         id="ellipse8088"
         ry="16.062"
         rx="14.582"
         cy="91.403999"
         cx="231.571"
         clip-rule="evenodd"
         sodipodi:cx="231.571"
         sodipodi:cy="91.403999"
         sodipodi:rx="14.582"
         sodipodi:ry="16.062"
         style="fill-rule:evenodd"
         d="m 246.153,91.403999 c 0,8.870801 -6.52858,16.062001 -14.582,16.062001 -8.05342,0 -14.582,-7.1912 -14.582,-16.062001 0,-8.870797 6.52858,-16.062 14.582,-16.062 8.05342,0 14.582,7.191203 14.582,16.062 z" />
      <ellipse
         id="ellipse8090"
         ry="4.0819998"
         rx="3.438"
         cy="95.028999"
         cx="238.20399"
         clip-rule="evenodd"
         sodipodi:cx="238.20399"
         sodipodi:cy="95.028999"
         sodipodi:rx="3.438"
         sodipodi:ry="4.0819998"
         style="fill:#ffffff;fill-rule:evenodd"
         d="m 241.64199,95.028999 c 0,2.254427 -1.53924,4.082 -3.438,4.082 -1.89875,0 -3.438,-1.827573 -3.438,-4.082 0,-2.254426 1.53925,-4.081999 3.438,-4.081999 1.89876,0 3.438,1.827573 3.438,4.081999 z" />
    </g>
    <path
       id="path8093"
       d="m 339.99644,278.14782 c -4.7757,11.5737 2.6631,34.7175 15.6209,17.647 -0.9264,-7.3413 0.3454,-14.4495 0.5794,-21.7938 l -16.2003,4.1468 z"
       clip-rule="evenodd"
       inkscape:connector-curvature="0"
       style="fill:#ffffff;fill-rule:evenodd;stroke:#000000;stroke-width:2.2143681;stroke-linecap:round" />
    <path
       style="fill:#ffffff;fill-rule:evenodd;stroke:#231f20;stroke-width:2.2143681;stroke-linecap:round"
       inkscape:connector-curvature="0"
       clip-rule="evenodd"
       d="m 341.63064,255.85862 c -8.901,0.7588 -16.1767,11.342 -11.5487,19.7146 6.1287,11.0895 19.8083,-0.981 28.3284,0.1498 9.806,0.2008 17.8405,10.3685 25.7162,1.838 8.7593,-9.4879 -3.7711,-18.7285 -13.5645,-22.8597 l -28.9314,1.1573 z"
       id="path8095" />
    <path
       style="fill-rule:evenodd"
       inkscape:connector-curvature="0"
       clip-rule="evenodd"
       d="m 340.51024,255.39512 c -0.6593,-15.4201 28.7409,-17.3481 32.213,-4.4405 3.4633,12.8773 -30.7656,15.8681 -32.213,4.4405 -1.1553,-9.1254 0,0 0,0 z"
       id="path8097" />
    <path
       sodipodi:nodetypes="cc"
       inkscape:connector-curvature="0"
       id="path8099"
       d="m 235.69074,223.01682 c -5.6472,-8.0742 -9.8833,-24.0275 -22.9237,-25.9404"
       style="fill:none;stroke:#1a1a1a;stroke-width:2.2143681;stroke-linecap:round;stroke-linejoin:round;stroke-miterlimit:4;stroke-opacity:1;stroke-dasharray:none" />
    <path
       style="fill:#000000;fill-opacity:1;stroke:none"
       d="m 356.05964,54.67782 c -122.944,0 -131.7713,95.8082 -117.8238,147.5115 4.2144,2.2499 7.9465,4.6168 9.9737,6.7678 0.319,0.6151 0.8787,1.0955 1.563,1.3798 l 2.9028,0 c 0.6694,-0.2977 1.2465,-0.8145 1.5632,-1.6428 3.7673,-9.7878 3.4774,-21.129 3.2004,-31.0791 -0.3237,-12.0331 -3.3201,-30.6193 16.4492,-30.6193 l 165.9805,0 c 19.7811,0 16.7888,18.5899 16.4492,30.6193 -0.3081,9.9466 -0.5357,21.2877 3.2007,31.0791 0.3271,0.8448 0.8765,1.348 1.563,1.6428 l 2.9027,0 c 0.6671,-0.2864 1.25,-0.7739 1.5631,-1.3798 2.0353,-2.1557 5.7447,-4.5135 9.9737,-6.7678 13.9259,-51.7033 5.1274,-147.5115 -117.8239,-147.5115 l -0.8186,0 -0.8189,0 z"
       id="path8101"
       inkscape:connector-curvature="0" />
    <path
       style="fill:#1a1a1a;fill-opacity:1;fill-rule:evenodd;stroke:#000000;stroke-width:2.2143681;stroke-linecap:round"
       inkscape:connector-curvature="0"
       clip-rule="evenodd"
       d="m 477.91234,278.65632 c 2.5598,43.5434 8.2353,93.8485 -11.9649,134.1995 -21.2505,42.4524 -74.3511,53.1316 -118.0996,51.5675 -34.3634,-1.2297 -75.8746,-12.4403 -95.2687,-43.8364 -22.7534,-36.8323 -11.9813,-91.5995 -10.3286,-132.5829 61.2832,43.8751 148.6837,57.8441 235.6618,-9.3477 z"
       id="path8103"
       sodipodi:nodetypes="cccccc" />
    <path
       sodipodi:nodetypes="cccccc"
       id="path8105"
       d="m 477.91234,280.65632 c 2.5598,43.5434 8.2353,93.8485 -11.9649,134.1995 -21.2505,42.4524 -74.3511,53.1316 -118.0996,51.5675 -34.3634,-1.2297 -75.8746,-12.4403 -95.2687,-43.8364 -22.7534,-36.8323 -11.9813,-91.5995 -10.3286,-132.5829 60.2722,53.9858 146.9525,75.1563 235.6618,-9.3477 z"
       clip-rule="evenodd"
       inkscape:connector-curvature="0"
       style="fill:#336e9f;fill-opacity:1;fill-rule:evenodd;stroke:#000000;stroke-width:2.21399999;stroke-linecap:round;stroke-linejoin:round;stroke-miterlimit:4;stroke-dasharray:none" />
    <path
       style="fill:#ffffff;fill-opacity:1;stroke:#1a1a1a;stroke-width:1.63844299;stroke-miterlimit:4;stroke-dasharray:none"
       d="m 232.30154,251.61532 c -2.7334,-0.032 -5.2523,2.2319 -5.5106,4.9542 -0.1309,1.8924 0.5985,3.6923 0.9801,5.5132 3.4975,13.6415 7.0276,27.2747 10.6148,40.8929 -1.6432,1.1443 -3.2101,2.3887 -4.9311,3.3923 -6.1975,-5.8105 -12.2085,-11.8149 -18.2944,-17.7409 -2.8739,-2.8006 -5.6735,-5.6925 -8.7485,-8.2752 -1.1532,-0.9522 -2.6679,-1.5406 -4.1727,-1.257 -3.2954,0.4988 -5.7466,4.334 -4.4852,7.4963 0.5459,1.0722 1.5751,1.7853 2.3274,2.701 7.525,7.8335 15.5225,15.1966 23.1105,22.9646 0.5789,0.6398 1.3151,1.2215 1.6142,2.0462 -0.1282,0.2041 -0.3732,0.6349 -0.5692,0.2338 -6.1406,-5.8318 -12.0716,-11.8973 -18.3043,-17.6284 -1.2997,-1.1223 -2.626,-2.4855 -4.3939,-2.7737 -1.4303,-0.1078 -2.928,0.3015 -4.081,1.159 -1.4505,1.1683 -2.2862,3.1108 -2.0913,4.965 0.385,1.9868 1.9672,3.4207 3.255,4.8667 4.3718,4.5264 8.9966,8.7959 13.4606,13.2304 2.5107,2.4824 5.0935,4.9143 7.5556,7.4319 2.2647,4.8737 4.6565,9.7176 7.7599,14.1226 3.51,5.1159 7.5457,9.9726 12.5191,13.7307 2.1241,1.5855 4.5857,2.7188 7.2021,3.1831 3.1099,0.659 6.4591,1.149 9.524,0.023 3.2629,-1.163 6.051,-3.2916 9.1338,-4.8263 4.0812,-2.1622 8.5058,-4.1361 11.4966,-7.7981 2.2901,-2.8476 3.1198,-6.5565 3.3311,-10.132 0.1925,-2.6534 0.52,-5.3509 1.6659,-7.7806 2.061,-4.7524 4.9803,-9.0609 7.2367,-13.7167 1.0106,-2.1017 2.7085,-3.7732 4.2479,-5.4983 2.2909,-2.4522 4.7181,-4.799 6.7493,-7.478 1.265,-1.8827 0.7752,-4.5363 -0.7515,-6.123 -1.6786,-1.9119 -4.8367,-2.4911 -6.9454,-0.9617 -5.7318,5.1474 -10.9014,10.8771 -16.3649,16.3015 -2.4219,2.4201 -4.8103,4.8937 -7.4182,7.1124 -2.6167,1.8115 -5.7015,2.7655 -8.4536,4.3378 -1.6561,1.0147 -2.742,2.69 -3.5118,4.4315 -0.4228,0.8951 -0.8063,1.8055 -1.3381,2.6405 -0.3324,-1.5608 0.292,-3.1577 0.9347,-4.5378 0.6804,-1.4623 1.9093,-2.6021 3.3639,-3.2768 2.5432,-1.366 5.3962,-2.0209 7.9439,-3.3715 0.792,-0.5316 1.5562,-1.3837 1.5614,-2.3787 -0.1955,-1.0043 -1.1116,-1.6596 -1.4331,-2.6105 -1.4129,-2.7056 -2.2968,-5.6464 -3.2737,-8.5351 -1.101,-2.7074 -3.22,-4.866 -5.5666,-6.542 -0.6107,-0.51 -0.4119,-1.4075 -0.6873,-2.0815 -2.8751,-12.7926 -5.6005,-25.6231 -8.6767,-38.3693 -0.7742,-2.243 -3.3295,-3.4291 -5.5935,-3.1685 -1.9302,0.1652 -3.6777,1.3917 -4.5843,3.089 -0.8858,1.5966 -0.2814,3.4921 0.026,5.1581 1.5089,6.9309 3.2063,13.8191 4.7732,20.7371 1.1833,5.1395 2.453,10.2923 3.5267,15.4376 -0.3748,0.085 -1.092,0.2478 -1.1144,-0.3421 -2.0573,-8.7565 -3.9712,-17.5469 -5.9668,-26.3167 -1.0944,-4.8524 -2.1119,-9.7255 -3.3562,-14.5419 -0.5171,-1.7576 -1.8124,-3.358 -3.6281,-3.8529 -0.5391,-0.1662 -1.1042,-0.241 -1.6681,-0.2384 z"
       id="path8107"
       inkscape:connector-curvature="0" />
    <g
       transform="matrix(2.5286443,-0.09951545,0.05450151,1.3848598,3067.9748,-5180.2843)"
       id="g8109">
      <path
         style="fill:none;stroke:#1a1a1a;stroke-width:4;stroke-linecap:butt;stroke-linejoin:round;stroke-miterlimit:4;stroke-opacity:1;stroke-dasharray:none"
         d="m -1143.337,3785.9278 20.446,-10.4178"
         id="path8111"
         inkscape:connector-curvature="0" />
      <path
         inkscape:connector-curvature="0"
         id="path8113"
         d="m -1162.891,3785.9278 -20.446,-10.4178"
         style="fill:none;stroke:#1a1a1a;stroke-width:4;stroke-linecap:butt;stroke-linejoin:round;stroke-miterlimit:4;stroke-opacity:1;stroke-dasharray:none" />
    </g>
    <g
       style="font-size:83.26029205px;font-style:normal;font-variant:normal;font-weight:normal;font-stretch:normal;text-align:center;line-height:125%;letter-spacing:0px;word-spacing:0px;writing-mode:lr-tb;text-anchor:middle;fill:#1a1a1a;fill-opacity:1;stroke:none;font-family:Bebas Neue;-inkscape-font-specification:Bebas Neue"
       id="text8115">
      <path
         d="m 195.32058,593.73047 0,-3.49693 -18.31726,0 0,-54.78528 -3.82998,0 0,58.28221 22.14724,0"
         style=""
         id="path10483" />
      <path
         d="m 204.97357,562.4246 0,-23.4794 19.14987,0 0,-3.49694 -22.97984,0 0,58.28221 22.97984,0 0,-3.49693 -19.14987,0 0,-24.31201 15.90272,0 0,-3.49693 -15.90272,0"
         style=""
         id="path10485" />
      <path
         d="m 254.14398,580.82512 2.91411,12.90535 3.82997,0 -12.9886,-58.36547 -5.57844,0 -12.73883,58.36547 3.49693,0 2.91411,-12.90535 18.15075,0 m -9.15863,-41.04732 8.57581,37.71691 -16.9851,0 8.40929,-37.71691"
         style=""
         id="path10487" />
      <path
         d="m 266.67855,535.44826 0,58.28221 3.82998,0 0,-26.06047 6.078,0 c 6.66082,0 10.9071,2.16477 10.9071,9.90797 l 0,9.15863 c 0,3.16389 0.24978,5.2454 1.2489,6.99387 l 3.9965,0 c -1.24891,-1.91499 -1.41543,-4.57932 -1.41543,-6.99387 l 0,-9.07537 c 0,-6.32777 -2.41455,-10.57406 -8.40929,-11.90622 5.74496,-1.33216 8.40929,-5.2454 8.40929,-12.07274 l 0,-5.07888 c 0,-8.24276 -3.5802,-13.15513 -12.48904,-13.15513 l -12.15601,0 m 3.82998,28.72481 0,-25.22787 8.24277,0 c 6.32777,0 8.74233,3.74672 8.74233,9.99123 l 0,5.49518 c 0,7.82646 -3.9965,9.74146 -10.82384,9.74146 l -6.16126,0"
         style=""
         id="path10489" />
      <path
         d="m 302.3738,541.77605 18.234,51.95442 4.24628,0 0,-58.28221 -3.49694,0 0,49.20684 -17.48466,-49.20684 -4.99561,0 0,58.28221 3.49693,0 0,-51.95442"
         style=""
         id="path10491" />
      <path
         d="m 356.56975,534.9487 c -8.90884,0 -12.5723,6.32779 -12.5723,14.73707 l 0,29.80719 c 0,8.40928 3.66346,14.73707 12.5723,14.73707 8.90884,0 12.5723,-6.32779 12.5723,-14.73707 l 0,-15.81946 -11.40666,0 0,3.49694 7.74321,0 0,12.5723 c 0,6.24452 -2.41455,10.9071 -8.82559,10.9071 -6.41104,0 -8.82559,-4.66258 -8.82559,-10.9071 l 0,-30.30675 c 0,-6.24451 2.41455,-10.99036 8.82559,-10.99036 6.41104,0 8.82559,4.74585 8.82559,10.99036 l 0,4.57932 3.66345,0 0,-4.32954 c 0,-8.40928 -3.66346,-14.73707 -12.5723,-14.73707"
         style=""
         id="path10493" />
      <path
         d="m 375.38267,579.49296 c 0,8.49254 3.91324,14.73707 12.73882,14.73707 8.99211,0 12.90535,-6.24453 12.90535,-14.73707 l 0,-29.80719 c 0,-8.49254 -3.91324,-14.73707 -12.90535,-14.73707 -8.82558,0 -12.73882,6.24453 -12.73882,14.73707 l 0,29.80719 m 3.82997,-30.05697 c 0,-6.32777 2.49782,-10.99036 8.90885,-10.99036 6.4943,0 9.07538,4.66259 9.07538,10.99036 l 0,30.30675 c 0,6.32778 -2.58108,10.99036 -9.07538,10.99036 -6.41103,0 -8.90885,-4.66258 -8.90885,-10.99036 l 0,-30.30675"
         style=""
         id="path10495" />
      <path
         d="m 442.33695,593.73047 0,-3.49693 -18.31726,0 0,-54.78528 -3.82997,0 0,58.28221 22.14723,0"
         style=""
         id="path10497" />
      <path
         d="m 471.88916,580.82512 2.91411,12.90535 3.82997,0 -12.9886,-58.36547 -5.57844,0 -12.73883,58.36547 3.49694,0 2.91411,-12.90535 18.15074,0 m -9.15863,-41.04732 8.57581,37.71691 -16.9851,0 8.40929,-37.71691"
         style=""
         id="path10499" />
      <path
         d="m 487.92067,541.77605 18.23401,51.95442 4.24627,0 0,-58.28221 -3.49693,0 0,49.20684 -17.48466,-49.20684 -4.99562,0 0,58.28221 3.49693,0 0,-51.95442"
         style=""
         id="path10501" />
      <path
         d="m 529.26979,534.9487 c -8.90884,0 -12.5723,6.32779 -12.5723,14.73707 l 0,29.80719 c 0,8.40928 3.66346,14.73707 12.5723,14.73707 8.90885,0 12.57231,-6.32779 12.57231,-14.73707 l 0,-15.81946 -11.40666,0 0,3.49694 7.7432,0 0,12.5723 c 0,6.24452 -2.41455,10.9071 -8.82559,10.9071 -6.41103,0 -8.82559,-4.66258 -8.82559,-10.9071 l 0,-30.30675 c 0,-6.24451 2.41456,-10.99036 8.82559,-10.99036 6.41104,0 8.82559,4.74585 8.82559,10.99036 l 0,4.57932 3.66346,0 0,-4.32954 c 0,-8.40928 -3.66346,-14.73707 -12.57231,-14.73707"
         style=""
         id="path10503" />
      <path
         d="m 219.18116,684.90049 2.91411,12.90534 3.82997,0 -12.9886,-58.36546 -5.57844,0 -12.73883,58.36546 3.49694,0 2.91411,-12.90534 18.15074,0 m -9.15863,-41.04733 8.57581,37.71692 -16.9851,0 8.40929,-37.71692"
         style=""
         id="path10505" />
      <path
         d="m 235.21267,645.85141 18.234,51.95442 4.24628,0 0,-58.2822 -3.49693,0 0,49.20683 -17.48467,-49.20683 -4.99561,0 0,58.2822 3.49693,0 0,-51.95442"
         style=""
         id="path10507" />
      <path
         d="m 264.23928,639.52363 0,58.2822 12.82209,0 c 8.9921,0 12.90534,-5.91149 12.90534,-14.48729 l 0,-29.30762 c 0,-8.5758 -3.91324,-14.48729 -12.90534,-14.48729 l -12.82209,0 m 3.82998,54.78527 0,-51.28834 8.90885,0 c 6.41104,0 9.15863,4.4128 9.15863,10.82384 l 0,29.64066 c 0,6.41104 -2.66433,10.82384 -9.15863,10.82384 l -8.90885,0"
         style=""
         id="path10509" />
      <path
         d="m 309.12179,639.52363 0,58.2822 3.82998,0 0,-23.97896 7.24364,0 c 9.24188,0 13.48817,-4.57933 13.48817,-13.82121 l 0,-6.32778 c 0,-8.49254 -3.49694,-14.15425 -12.48905,-14.15425 l -12.07274,0 m 3.82998,30.80631 0,-27.30938 8.24276,0 c 6.4943,0 8.65907,4.07976 8.65907,10.40754 l 0,6.82734 c 0,7.07712 -2.91411,10.0745 -9.65819,10.0745 l -7.24364,0"
         style=""
         id="path10511" />
      <path
         d="m 339.53131,639.52363 0,58.2822 3.82997,0 0,-26.06047 6.078,0 c 6.66082,0 10.9071,2.16478 10.9071,9.90798 l 0,9.15863 c 0,3.16389 0.24978,5.2454 1.2489,6.99386 l 3.9965,0 c -1.2489,-1.91498 -1.41543,-4.57931 -1.41543,-6.99386 l 0,-9.07537 c 0,-6.32778 -2.41455,-10.57406 -8.40929,-11.90622 5.74496,-1.33217 8.40929,-5.24541 8.40929,-12.07275 l 0,-5.07887 c 0,-8.24277 -3.5802,-13.15513 -12.48904,-13.15513 l -12.156,0 m 3.82997,28.7248 0,-25.22787 8.24277,0 c 6.32778,0 8.74233,3.74672 8.74233,9.99124 l 0,5.49518 c 0,7.82646 -3.9965,9.74145 -10.82384,9.74145 l -6.16126,0"
         style=""
         id="path10513" />
      <path
         d="m 371.47984,683.56832 c 0,8.49255 3.91325,14.73708 12.73883,14.73708 8.9921,0 12.90534,-6.24453 12.90534,-14.73708 l 0,-29.80718 c 0,-8.49254 -3.91324,-14.73707 -12.90534,-14.73707 -8.82558,0 -12.73883,6.24453 -12.73883,14.73707 l 0,29.80718 m 3.82998,-30.05696 c 0,-6.32778 2.49781,-10.99036 8.90885,-10.99036 6.4943,0 9.07537,4.66258 9.07537,10.99036 l 0,30.30674 c 0,6.32778 -2.58107,10.99036 -9.07537,10.99036 -6.41104,0 -8.90885,-4.66258 -8.90885,-10.99036 l 0,-30.30674"
         style=""
         id="path10515" />
      <path
         d="m 415.59609,639.02407 c -8.5758,0.0833 -12.40578,5.74497 -12.40578,14.48729 0,16.23574 21.06485,16.48555 21.06485,30.47327 0,6.24451 -2.41455,10.74057 -8.82559,10.74057 -6.41103,0 -8.82559,-4.49606 -8.82559,-10.74057 l 0,-3.24716 -3.66345,0 0,2.99737 c 0,8.40929 3.66346,14.57056 12.5723,14.57056 8.90884,0 12.57231,-6.16127 12.57231,-14.57056 0,-16.06922 -21.06486,-16.31903 -21.06486,-30.47326 0,-6.16126 2.3313,-10.74058 8.65907,-10.74058 6.32778,0 8.65907,4.66258 8.65907,10.82384 l 0,1.49868 3.66346,0 0,-1.2489 c 0,-8.40928 -3.58021,-14.57055 -12.40579,-14.57055"
         style=""
         id="path10517" />
      <path
         d="m 434.17485,639.52363 0,58.2822 3.82997,0 0,-23.97896 7.24365,0 c 9.24188,0 13.48816,-4.57933 13.48816,-13.82121 l 0,-6.32778 c 0,-8.49254 -3.49694,-14.15425 -12.48904,-14.15425 l -12.07274,0 m 3.82997,30.80631 0,-27.30938 8.24277,0 c 6.4943,0 8.65907,4.07976 8.65907,10.40754 l 0,6.82734 c 0,7.07712 -2.91412,10.0745 -9.65819,10.0745 l -7.24365,0"
         style=""
         id="path10519" />
      <path
         d="m 468.41434,666.49996 0,-23.4794 19.14986,0 0,-3.49693 -22.97984,0 0,58.2822 22.97984,0 0,-3.49693 -19.14986,0 0,-24.312 15.90271,0 0,-3.49694 -15.90271,0"
         style=""
         id="path10521" />
      <path
         d="m 493.85557,639.52363 0,58.2822 3.82998,0 0,-26.06047 6.078,0 c 6.66081,0 10.90709,2.16478 10.90709,9.90798 l 0,9.15863 c 0,3.16389 0.24979,5.2454 1.24891,6.99386 l 3.99649,0 c -1.2489,-1.91498 -1.41542,-4.57931 -1.41542,-6.99386 l 0,-9.07537 c 0,-6.32778 -2.41456,-10.57406 -8.40929,-11.90622 5.74495,-1.33217 8.40929,-5.24541 8.40929,-12.07275 l 0,-5.07887 c 0,-8.24277 -3.5802,-13.15513 -12.48905,-13.15513 l -12.156,0 m 3.82998,28.7248 0,-25.22787 8.24276,0 c 6.32778,0 8.74233,3.74672 8.74233,9.99124 l 0,5.49518 c 0,7.82646 -3.9965,9.74145 -10.82383,9.74145 l -6.16126,0"
         style=""
         id="path10523" />
    </g>
  </g>
</svg>
